M48
;Layer_Color=9474304
;FILE_FORMAT=2:4
INCH,TZ
;TYPE=PLATED
T1F00S00C0.0079
T3F00S00C0.0354
T4F00S00C0.0400
T5F00S00C0.0450
T6F00S00C0.0984
;TYPE=NON_PLATED
T7F00S00C0.0256
%
T01
X5450Y3200
X5454Y3944
Y4250
X5159
X5454Y4555
X5100Y5250
X4450Y4250
X5868Y4250
X6163
X5868Y4555
Y3944
X6350Y3200
X6800
X7100
X8350Y3150
X9650
X9550Y3750
X9000Y5500
X8050
X6650Y5100
X7050Y1100
X9000
X10300
X10950
X12400Y2691
X12050Y5250
X18319Y3469
X17531Y1900
X19450Y1850
X18445Y10400
X16205
X16872Y9300
X15000Y7900
X14250Y10250
X13100Y10600
X12646Y10304
X12050Y9150
X12000Y6600
X10800Y5700
X10550Y5850
X8650Y6950
X8750Y7900
Y8700
Y9050
Y9500
X5800Y9150
X5650Y10250
X7150Y7450
X5250Y7000
X4900Y7950
X4850Y8900
X5150Y9150
X3600Y9445
X3605Y9760
X3600Y8850
X3350Y8600
Y8350
X3600Y8148
X3700Y7550
Y7240
T03
X12257Y800
X13257
X14257
X15257
X16257
X17257
T04
X1000Y1950
T05
X1000Y5950
T06
X787Y787
X18898
Y11024
X787
T07
X2449Y7362
Y9638
M30
