G04 Layer_Physical_Order=3*
G04 Layer_Color=16440176*
%FSLAX25Y25*%
%MOIN*%
G70*
G01*
G75*
%ADD32O,0.05905X0.07874*%
%ADD39C,0.01772*%
G36*
X110000Y117131D02*
X110000Y88500D01*
X79000D01*
X73000Y88500D01*
X50000D01*
Y81100D01*
X49563Y80820D01*
X49500Y80813D01*
X49000Y80913D01*
X48459Y80805D01*
X48001Y80499D01*
X47695Y80041D01*
X47587Y79500D01*
X47695Y78959D01*
X48001Y78501D01*
X48459Y78195D01*
X49000Y78087D01*
X49500Y78187D01*
X49563Y78180D01*
X50000Y77900D01*
Y65500D01*
X72639Y66484D01*
X73000Y66138D01*
Y37500D01*
X73000Y29000D01*
X65500D01*
Y49400D01*
X65937Y49680D01*
X66000Y49687D01*
X66500Y49587D01*
X67041Y49695D01*
X67499Y50001D01*
X67805Y50459D01*
X67913Y51000D01*
X67805Y51541D01*
X67499Y51999D01*
X67041Y52305D01*
X66500Y52413D01*
X65959Y52305D01*
X65892Y52261D01*
X65500Y52000D01*
X52708D01*
X52390Y52386D01*
X52413Y52500D01*
X52305Y53041D01*
X51999Y53499D01*
X51541Y53805D01*
X51000Y53913D01*
X50459Y53805D01*
X50001Y53499D01*
X49695Y53041D01*
X49587Y52500D01*
X49610Y52386D01*
X49292Y52000D01*
X29500Y52000D01*
Y65678D01*
X30302Y66214D01*
X30847Y67030D01*
X31039Y67992D01*
X30847Y68955D01*
X30302Y69771D01*
X29486Y70316D01*
X28524Y70507D01*
X24390D01*
X23427Y70316D01*
X22611Y69771D01*
X22066Y68955D01*
X21874Y67992D01*
X22066Y67030D01*
X22420Y66500D01*
X22152Y66000D01*
X14082D01*
X13820Y66500D01*
X14200Y67068D01*
X14383Y67992D01*
X14200Y68916D01*
X13676Y69700D01*
X12893Y70223D01*
X11969Y70407D01*
X8032D01*
X7107Y70223D01*
X6324Y69700D01*
X5800Y68916D01*
X5617Y67992D01*
X5800Y67068D01*
X6180Y66500D01*
X5918Y66000D01*
X918D01*
Y116838D01*
X1271Y117192D01*
X110000Y117131D01*
D02*
G37*
G36*
X110000Y85000D02*
X110000Y12708D01*
X109614Y12390D01*
X109500Y12413D01*
X108959Y12305D01*
X108501Y11999D01*
X108195Y11541D01*
X108087Y11000D01*
X108195Y10459D01*
X108501Y10001D01*
X108959Y9695D01*
X109500Y9587D01*
X109614Y9610D01*
X110000Y9292D01*
Y918D01*
X918D01*
Y61500D01*
X4567D01*
Y54500D01*
X4694Y54194D01*
X5000Y54067D01*
X15000D01*
X15306Y54194D01*
X15433Y54500D01*
Y61500D01*
X25000D01*
Y49000D01*
Y47500D01*
X62500D01*
Y44128D01*
X62000Y43827D01*
X61630Y43901D01*
X61092Y43794D01*
X60637Y43490D01*
X60431Y43183D01*
X60379Y43165D01*
X59928D01*
X59876Y43183D01*
X59671Y43490D01*
X59278Y43752D01*
X59244Y44022D01*
X59278Y44291D01*
X59671Y44554D01*
X59975Y45010D01*
X60082Y45547D01*
X59975Y46085D01*
X59671Y46541D01*
X59215Y46845D01*
X58677Y46952D01*
X58139Y46845D01*
X57684Y46541D01*
X57379Y46085D01*
X57272Y45547D01*
X57379Y45010D01*
X57684Y44554D01*
X58077Y44291D01*
X58111Y44022D01*
X58077Y43752D01*
X57684Y43490D01*
X57379Y43034D01*
X57272Y42496D01*
X57379Y41958D01*
X57684Y41503D01*
X58077Y41240D01*
X58111Y40971D01*
X58077Y40701D01*
X57684Y40438D01*
X57379Y39983D01*
X57272Y39445D01*
X57379Y38907D01*
X57684Y38451D01*
X58139Y38147D01*
X58677Y38040D01*
X59215Y38147D01*
X59671Y38451D01*
X59975Y38907D01*
X60082Y39445D01*
X59975Y39983D01*
X59671Y40438D01*
X59278Y40701D01*
X59244Y40971D01*
X59278Y41240D01*
X59671Y41503D01*
X59876Y41810D01*
X59928Y41827D01*
X60379D01*
X60431Y41810D01*
X60637Y41503D01*
X61092Y41198D01*
X61630Y41091D01*
X62000Y41165D01*
X62500Y40865D01*
Y32998D01*
X62195Y32541D01*
X62087Y32000D01*
X62195Y31459D01*
X62500Y31002D01*
Y25500D01*
X79000D01*
Y53851D01*
X79500Y54002D01*
X79501Y54001D01*
X79959Y53695D01*
X80500Y53587D01*
X81041Y53695D01*
X81499Y54001D01*
X81805Y54459D01*
X81913Y55000D01*
X81805Y55541D01*
X81499Y55999D01*
X81041Y56305D01*
X80500Y56413D01*
X79959Y56305D01*
X79501Y55999D01*
X79500Y55998D01*
X79000Y56150D01*
Y70500D01*
X78500Y70000D01*
X55500D01*
Y84646D01*
X55853Y85000D01*
X110000Y85000D01*
D02*
G37*
G36*
X195933Y117083D02*
Y918D01*
X115000D01*
Y116774D01*
X115354Y117128D01*
X195933Y117083D01*
D02*
G37*
%LPC*%
G36*
X71000Y33413D02*
X70459Y33305D01*
X70001Y32999D01*
X69695Y32541D01*
X69587Y32000D01*
X69695Y31459D01*
X70001Y31001D01*
X70459Y30695D01*
X71000Y30587D01*
X71541Y30695D01*
X71999Y31001D01*
X72305Y31459D01*
X72413Y32000D01*
X72305Y32541D01*
X71999Y32999D01*
X71541Y33305D01*
X71000Y33413D01*
D02*
G37*
G36*
X58000Y92913D02*
X57459Y92805D01*
X57001Y92499D01*
X56695Y92041D01*
X56587Y91500D01*
X56695Y90959D01*
X57001Y90501D01*
X57459Y90195D01*
X58000Y90087D01*
X58541Y90195D01*
X58999Y90501D01*
X59305Y90959D01*
X59413Y91500D01*
X59305Y92041D01*
X58999Y92499D01*
X58541Y92805D01*
X58000Y92913D01*
D02*
G37*
G36*
X87500Y91913D02*
X86959Y91805D01*
X86501Y91499D01*
X86195Y91041D01*
X86087Y90500D01*
X86195Y89959D01*
X86501Y89501D01*
X86959Y89195D01*
X87500Y89087D01*
X88041Y89195D01*
X88499Y89501D01*
X88805Y89959D01*
X88913Y90500D01*
X88805Y91041D01*
X88499Y91499D01*
X88041Y91805D01*
X87500Y91913D01*
D02*
G37*
G36*
X36000Y89913D02*
X35459Y89805D01*
X35001Y89499D01*
X34695Y89041D01*
X34587Y88500D01*
X34695Y87959D01*
X35001Y87501D01*
X35459Y87195D01*
X36000Y87087D01*
X36541Y87195D01*
X36999Y87501D01*
X37305Y87959D01*
X37413Y88500D01*
X37305Y89041D01*
X36999Y89499D01*
X36541Y89805D01*
X36000Y89913D01*
D02*
G37*
G36*
X7874Y116170D02*
X6716Y116056D01*
X5603Y115719D01*
X4577Y115170D01*
X3678Y114432D01*
X2940Y113533D01*
X2392Y112507D01*
X2054Y111394D01*
X1940Y110236D01*
X2054Y109079D01*
X2392Y107965D01*
X2940Y106939D01*
X3678Y106040D01*
X4577Y105302D01*
X5603Y104754D01*
X6549Y104467D01*
X6657Y104009D01*
X6645Y103930D01*
X6324Y103716D01*
X5800Y102932D01*
X5617Y102008D01*
X5800Y101084D01*
X6324Y100300D01*
X7107Y99777D01*
X8032Y99593D01*
X11969D01*
X12893Y99777D01*
X13676Y100300D01*
X14200Y101084D01*
X14383Y102008D01*
X14200Y102932D01*
X13676Y103716D01*
X12893Y104239D01*
X11969Y104423D01*
X10586D01*
X10461Y104923D01*
X11171Y105302D01*
X12070Y106040D01*
X12808Y106939D01*
X13356Y107965D01*
X13694Y109079D01*
X13808Y110236D01*
X13694Y111394D01*
X13356Y112507D01*
X12808Y113533D01*
X12070Y114432D01*
X11171Y115170D01*
X10145Y115719D01*
X9032Y116056D01*
X7874Y116170D01*
D02*
G37*
G36*
X56500Y103913D02*
X55959Y103805D01*
X55501Y103499D01*
X55195Y103041D01*
X55087Y102500D01*
X55195Y101959D01*
X55501Y101501D01*
X55959Y101195D01*
X56500Y101087D01*
X57041Y101195D01*
X57499Y101501D01*
X57805Y101959D01*
X57913Y102500D01*
X57805Y103041D01*
X57499Y103499D01*
X57041Y103805D01*
X56500Y103913D01*
D02*
G37*
G36*
X28524Y104523D02*
X24390D01*
X23427Y104332D01*
X22611Y103786D01*
X22066Y102970D01*
X21874Y102008D01*
X22066Y101045D01*
X22611Y100229D01*
X23427Y99684D01*
X24390Y99493D01*
X28524D01*
X29486Y99684D01*
X30302Y100229D01*
X30847Y101045D01*
X31039Y102008D01*
X30847Y102970D01*
X30302Y103786D01*
X29486Y104332D01*
X28524Y104523D01*
D02*
G37*
G36*
X24488Y98686D02*
X23605Y98510D01*
X22856Y98010D01*
X22356Y97261D01*
X22180Y96378D01*
X22356Y95495D01*
X22856Y94746D01*
X23605Y94245D01*
X24488Y94070D01*
X25372Y94245D01*
X26120Y94746D01*
X26621Y95495D01*
X26796Y96378D01*
X26621Y97261D01*
X26120Y98010D01*
X25372Y98510D01*
X24488Y98686D01*
D02*
G37*
G36*
X36051Y99011D02*
X35511Y98904D01*
X35052Y98598D01*
X34746Y98139D01*
X34638Y97598D01*
X34746Y97058D01*
X35052Y96599D01*
X35511Y96293D01*
X36051Y96185D01*
X36592Y96293D01*
X37050Y96599D01*
X37357Y97058D01*
X37464Y97598D01*
X37357Y98139D01*
X37050Y98598D01*
X36592Y98904D01*
X36051Y99011D01*
D02*
G37*
G36*
X33500Y87413D02*
X32959Y87305D01*
X32501Y86999D01*
X32195Y86541D01*
X32087Y86000D01*
X32195Y85459D01*
X32501Y85001D01*
X32502Y85000D01*
Y84500D01*
X32501Y84499D01*
X32195Y84041D01*
X32087Y83500D01*
X32195Y82959D01*
X32501Y82501D01*
X32959Y82195D01*
X33500Y82087D01*
X34041Y82195D01*
X34340Y82395D01*
X34701Y82034D01*
X34695Y82025D01*
X34587Y81484D01*
X34695Y80944D01*
X35001Y80485D01*
X35459Y80179D01*
X36000Y80071D01*
X36541Y80179D01*
X36999Y80485D01*
X37305Y80944D01*
X37413Y81484D01*
X37305Y82025D01*
X36999Y82483D01*
X36541Y82790D01*
X36000Y82897D01*
X35459Y82790D01*
X35160Y82590D01*
X34799Y82950D01*
X34805Y82959D01*
X34913Y83500D01*
X34805Y84041D01*
X34499Y84499D01*
X34498Y84500D01*
Y85000D01*
X34499Y85001D01*
X34805Y85459D01*
X34913Y86000D01*
X34805Y86541D01*
X34499Y86999D01*
X34041Y87305D01*
X33500Y87413D01*
D02*
G37*
G36*
X24488Y75930D02*
X23605Y75754D01*
X22856Y75254D01*
X22356Y74505D01*
X22180Y73622D01*
X22356Y72739D01*
X22856Y71990D01*
X23605Y71490D01*
X24488Y71314D01*
X25372Y71490D01*
X26120Y71990D01*
X26621Y72739D01*
X26796Y73622D01*
X26621Y74505D01*
X26120Y75254D01*
X25372Y75754D01*
X24488Y75930D01*
D02*
G37*
G36*
X37000Y73814D02*
X36459Y73707D01*
X36001Y73401D01*
X35695Y72942D01*
X35587Y72402D01*
X35695Y71861D01*
X36001Y71402D01*
X36459Y71096D01*
X37000Y70989D01*
X37541Y71096D01*
X37999Y71402D01*
X38305Y71861D01*
X38413Y72402D01*
X38305Y72942D01*
X37999Y73401D01*
X37541Y73707D01*
X37000Y73814D01*
D02*
G37*
G36*
X103000Y12413D02*
X102459Y12305D01*
X102001Y11999D01*
X101695Y11541D01*
X101587Y11000D01*
X101695Y10459D01*
X102001Y10001D01*
X102459Y9695D01*
X103000Y9587D01*
X103541Y9695D01*
X103999Y10001D01*
X104305Y10459D01*
X104413Y11000D01*
X104305Y11541D01*
X103999Y11999D01*
X103541Y12305D01*
X103000Y12413D01*
D02*
G37*
G36*
X90000D02*
X89459Y12305D01*
X89001Y11999D01*
X88695Y11541D01*
X88587Y11000D01*
X88695Y10459D01*
X89001Y10001D01*
X89459Y9695D01*
X90000Y9587D01*
X90541Y9695D01*
X90999Y10001D01*
X91305Y10459D01*
X91413Y11000D01*
X91305Y11541D01*
X90999Y11999D01*
X90541Y12305D01*
X90000Y12413D01*
D02*
G37*
G36*
X70500D02*
X69959Y12305D01*
X69501Y11999D01*
X69195Y11541D01*
X69087Y11000D01*
X69195Y10459D01*
X69501Y10001D01*
X69959Y9695D01*
X70500Y9587D01*
X71041Y9695D01*
X71499Y10001D01*
X71805Y10459D01*
X71913Y11000D01*
X71805Y11541D01*
X71499Y11999D01*
X71041Y12305D01*
X70500Y12413D01*
D02*
G37*
G36*
X95500Y38913D02*
X94959Y38805D01*
X94501Y38499D01*
X94195Y38041D01*
X94087Y37500D01*
X94195Y36959D01*
X94501Y36501D01*
X94959Y36195D01*
X95500Y36087D01*
X96041Y36195D01*
X96499Y36501D01*
X96805Y36959D01*
X96913Y37500D01*
X96805Y38041D01*
X96499Y38499D01*
X96041Y38805D01*
X95500Y38913D01*
D02*
G37*
G36*
X83500Y32913D02*
X82959Y32805D01*
X82501Y32499D01*
X82195Y32041D01*
X82087Y31500D01*
X82195Y30959D01*
X82501Y30501D01*
X82959Y30195D01*
X83500Y30087D01*
X84041Y30195D01*
X84499Y30501D01*
X84805Y30959D01*
X84913Y31500D01*
X84805Y32041D01*
X84499Y32499D01*
X84041Y32805D01*
X83500Y32913D01*
D02*
G37*
G36*
X15000Y24933D02*
X5000D01*
X4694Y24806D01*
X4567Y24500D01*
Y14500D01*
X4694Y14194D01*
X5000Y14067D01*
X6223D01*
X6297Y13567D01*
X5603Y13356D01*
X4577Y12808D01*
X3678Y12070D01*
X2940Y11171D01*
X2392Y10145D01*
X2054Y9032D01*
X1940Y7874D01*
X2054Y6716D01*
X2392Y5603D01*
X2940Y4577D01*
X3678Y3678D01*
X4577Y2940D01*
X5603Y2392D01*
X6716Y2054D01*
X7874Y1940D01*
X9032Y2054D01*
X10145Y2392D01*
X11171Y2940D01*
X12070Y3678D01*
X12808Y4577D01*
X13356Y5603D01*
X13694Y6716D01*
X13808Y7874D01*
X13694Y9032D01*
X13356Y10145D01*
X12808Y11171D01*
X12070Y12070D01*
X11171Y12808D01*
X10145Y13356D01*
X9450Y13567D01*
X9525Y14067D01*
X15000D01*
X15306Y14194D01*
X15433Y14500D01*
Y24500D01*
X15306Y24806D01*
X15000Y24933D01*
D02*
G37*
G36*
X44500Y43913D02*
X43959Y43805D01*
X43501Y43499D01*
X43195Y43041D01*
X43087Y42500D01*
X43195Y41959D01*
X43501Y41501D01*
X43959Y41195D01*
X44500Y41087D01*
X45041Y41195D01*
X45499Y41501D01*
X45805Y41959D01*
X45913Y42500D01*
X45805Y43041D01*
X45499Y43499D01*
X45041Y43805D01*
X44500Y43913D01*
D02*
G37*
G36*
X105500Y59913D02*
X104959Y59805D01*
X104501Y59499D01*
X104195Y59041D01*
X104087Y58500D01*
X104195Y57959D01*
X104501Y57501D01*
X104959Y57195D01*
X105500Y57087D01*
X106041Y57195D01*
X106499Y57501D01*
X106805Y57959D01*
X106913Y58500D01*
X106805Y59041D01*
X106499Y59499D01*
X106041Y59805D01*
X105500Y59913D01*
D02*
G37*
G36*
X90000Y56413D02*
X89459Y56305D01*
X89001Y55999D01*
X88695Y55541D01*
X88587Y55000D01*
X88695Y54459D01*
X89001Y54001D01*
X89459Y53695D01*
X90000Y53587D01*
X90541Y53695D01*
X90999Y54001D01*
X91305Y54459D01*
X91413Y55000D01*
X91305Y55541D01*
X90999Y55999D01*
X90541Y56305D01*
X90000Y56413D01*
D02*
G37*
G36*
X54543Y46952D02*
X54006Y46845D01*
X53550Y46541D01*
X53245Y46085D01*
X53138Y45547D01*
X53245Y45010D01*
X53550Y44554D01*
X53943Y44291D01*
X53977Y44022D01*
X53943Y43752D01*
X53550Y43490D01*
X53345Y43183D01*
X53293Y43165D01*
X52841D01*
X52789Y43183D01*
X52584Y43490D01*
X52128Y43794D01*
X51591Y43901D01*
X51053Y43794D01*
X50597Y43490D01*
X50292Y43034D01*
X50186Y42496D01*
X50292Y41958D01*
X50597Y41503D01*
X51053Y41198D01*
X51591Y41091D01*
X52128Y41198D01*
X52584Y41503D01*
X52789Y41810D01*
X52841Y41827D01*
X53293D01*
X53345Y41810D01*
X53550Y41503D01*
X53943Y41240D01*
X53977Y40971D01*
X53943Y40701D01*
X53550Y40438D01*
X53245Y39983D01*
X53138Y39445D01*
X53245Y38907D01*
X53550Y38451D01*
X54006Y38147D01*
X54543Y38040D01*
X55081Y38147D01*
X55537Y38451D01*
X55841Y38907D01*
X55948Y39445D01*
X55841Y39983D01*
X55537Y40438D01*
X55144Y40701D01*
X55110Y40971D01*
X55144Y41240D01*
X55537Y41503D01*
X55841Y41958D01*
X55948Y42496D01*
X55841Y43034D01*
X55537Y43490D01*
X55144Y43752D01*
X55110Y44022D01*
X55144Y44291D01*
X55537Y44554D01*
X55841Y45010D01*
X55948Y45547D01*
X55841Y46085D01*
X55537Y46541D01*
X55081Y46845D01*
X54543Y46952D01*
D02*
G37*
G36*
X87500Y80413D02*
X86959Y80305D01*
X86501Y79999D01*
X86195Y79541D01*
X86087Y79000D01*
X86195Y78459D01*
X86501Y78001D01*
X86959Y77695D01*
X87500Y77587D01*
X88041Y77695D01*
X88499Y78001D01*
X88805Y78459D01*
X88913Y79000D01*
X88805Y79541D01*
X88499Y79999D01*
X88041Y80305D01*
X87500Y80413D01*
D02*
G37*
G36*
X86500Y70913D02*
X85959Y70805D01*
X85501Y70499D01*
X85195Y70041D01*
X85087Y69500D01*
X85195Y68959D01*
X85501Y68501D01*
X85959Y68195D01*
X86500Y68087D01*
X87041Y68195D01*
X87499Y68501D01*
X87805Y68959D01*
X87913Y69500D01*
X87805Y70041D01*
X87499Y70499D01*
X87041Y70805D01*
X86500Y70913D01*
D02*
G37*
G36*
X175311Y20413D02*
X174770Y20305D01*
X174312Y19999D01*
X174006Y19541D01*
X173898Y19000D01*
X174006Y18459D01*
X174312Y18001D01*
X174770Y17695D01*
X175311Y17587D01*
X175852Y17695D01*
X176310Y18001D01*
X176616Y18459D01*
X176724Y19000D01*
X176616Y19541D01*
X176310Y19999D01*
X175852Y20305D01*
X175311Y20413D01*
D02*
G37*
G36*
X162775Y12340D02*
Y8200D01*
X165956D01*
Y8984D01*
X165841Y9860D01*
X165503Y10675D01*
X164966Y11376D01*
X164266Y11913D01*
X163450Y12251D01*
X162775Y12340D01*
D02*
G37*
G36*
X183185Y36098D02*
X182644Y35990D01*
X182186Y35684D01*
X181880Y35226D01*
X181772Y34685D01*
X181880Y34144D01*
X182186Y33686D01*
X182644Y33380D01*
X183185Y33272D01*
X183726Y33380D01*
X184184Y33686D01*
X184491Y34144D01*
X184598Y34685D01*
X184491Y35226D01*
X184184Y35684D01*
X183726Y35990D01*
X183185Y36098D01*
D02*
G37*
G36*
X124000Y28325D02*
X123459Y28217D01*
X123001Y27911D01*
X122695Y27452D01*
X122587Y26912D01*
X122695Y26371D01*
X123001Y25913D01*
X123459Y25606D01*
X124000Y25499D01*
X124541Y25606D01*
X124999Y25913D01*
X125305Y26371D01*
X125413Y26912D01*
X125305Y27452D01*
X124999Y27911D01*
X124541Y28217D01*
X124000Y28325D01*
D02*
G37*
G36*
X162375Y12340D02*
X161700Y12251D01*
X160884Y11913D01*
X160184Y11376D01*
X159646Y10675D01*
X159308Y9860D01*
X159193Y8984D01*
Y8200D01*
X162375D01*
Y12340D01*
D02*
G37*
G36*
X175528Y12370D02*
X169622D01*
X169316Y12243D01*
X169189Y11937D01*
Y4063D01*
X169316Y3757D01*
X169622Y3630D01*
X175528D01*
X175834Y3757D01*
X175961Y4063D01*
Y11937D01*
X175834Y12243D01*
X175528Y12370D01*
D02*
G37*
G36*
X122575Y12366D02*
X121700Y12251D01*
X120884Y11913D01*
X120184Y11376D01*
X119646Y10675D01*
X119308Y9860D01*
X119193Y8984D01*
Y7016D01*
X119308Y6140D01*
X119646Y5325D01*
X120184Y4625D01*
X120884Y4087D01*
X121700Y3749D01*
X122575Y3634D01*
X123450Y3749D01*
X124266Y4087D01*
X124966Y4625D01*
X125503Y5325D01*
X125841Y6140D01*
X125956Y7016D01*
Y8984D01*
X125841Y9860D01*
X125503Y10675D01*
X124966Y11376D01*
X124266Y11913D01*
X123450Y12251D01*
X122575Y12366D01*
D02*
G37*
G36*
X188976Y13808D02*
X187819Y13694D01*
X186706Y13356D01*
X185680Y12808D01*
X184780Y12070D01*
X184042Y11171D01*
X183494Y10145D01*
X183156Y9032D01*
X183042Y7874D01*
X183156Y6716D01*
X183494Y5603D01*
X184042Y4577D01*
X184780Y3678D01*
X185680Y2940D01*
X186706Y2392D01*
X187819Y2054D01*
X188976Y1940D01*
X190134Y2054D01*
X191247Y2392D01*
X192273Y2940D01*
X193172Y3678D01*
X193910Y4577D01*
X194459Y5603D01*
X194796Y6716D01*
X194911Y7874D01*
X194796Y9032D01*
X194459Y10145D01*
X193910Y11171D01*
X193172Y12070D01*
X192273Y12808D01*
X191247Y13356D01*
X190134Y13694D01*
X188976Y13808D01*
D02*
G37*
G36*
Y116170D02*
X187819Y116056D01*
X186706Y115719D01*
X185680Y115170D01*
X184780Y114432D01*
X184042Y113533D01*
X183494Y112507D01*
X183156Y111394D01*
X183042Y110236D01*
X183156Y109079D01*
X183494Y107965D01*
X184042Y106939D01*
X184780Y106040D01*
X185680Y105302D01*
X186706Y104754D01*
X187819Y104416D01*
X188976Y104302D01*
X190134Y104416D01*
X191247Y104754D01*
X192273Y105302D01*
X193172Y106040D01*
X193910Y106939D01*
X194459Y107965D01*
X194796Y109079D01*
X194911Y110236D01*
X194796Y111394D01*
X194459Y112507D01*
X193910Y113533D01*
X193172Y114432D01*
X192273Y115170D01*
X191247Y115719D01*
X190134Y116056D01*
X188976Y116170D01*
D02*
G37*
G36*
X162375Y7800D02*
X159193D01*
Y7016D01*
X159308Y6140D01*
X159646Y5325D01*
X160184Y4625D01*
X160884Y4087D01*
X161700Y3749D01*
X162375Y3660D01*
Y7800D01*
D02*
G37*
G36*
X165956D02*
X162775D01*
Y3660D01*
X163450Y3749D01*
X164266Y4087D01*
X164966Y4625D01*
X165503Y5325D01*
X165841Y6140D01*
X165956Y7016D01*
Y7800D01*
D02*
G37*
G36*
X152575Y12366D02*
X151700Y12251D01*
X150884Y11913D01*
X150184Y11376D01*
X149646Y10675D01*
X149308Y9860D01*
X149193Y8984D01*
Y7016D01*
X149308Y6140D01*
X149646Y5325D01*
X150184Y4625D01*
X150884Y4087D01*
X151700Y3749D01*
X152575Y3634D01*
X153450Y3749D01*
X154266Y4087D01*
X154966Y4625D01*
X155503Y5325D01*
X155841Y6140D01*
X155956Y7016D01*
Y8984D01*
X155841Y9860D01*
X155503Y10675D01*
X154966Y11376D01*
X154266Y11913D01*
X153450Y12251D01*
X152575Y12366D01*
D02*
G37*
G36*
X132575D02*
X131700Y12251D01*
X130884Y11913D01*
X130184Y11376D01*
X129646Y10675D01*
X129308Y9860D01*
X129193Y8984D01*
Y7016D01*
X129308Y6140D01*
X129646Y5325D01*
X130184Y4625D01*
X130884Y4087D01*
X131700Y3749D01*
X132575Y3634D01*
X133450Y3749D01*
X134266Y4087D01*
X134966Y4625D01*
X135503Y5325D01*
X135841Y6140D01*
X135957Y7016D01*
Y8984D01*
X135841Y9860D01*
X135503Y10675D01*
X134966Y11376D01*
X134266Y11913D01*
X133450Y12251D01*
X132575Y12366D01*
D02*
G37*
G36*
X142575D02*
X141700Y12251D01*
X140884Y11913D01*
X140184Y11376D01*
X139646Y10675D01*
X139308Y9860D01*
X139193Y8984D01*
Y7016D01*
X139308Y6140D01*
X139646Y5325D01*
X140184Y4625D01*
X140884Y4087D01*
X141700Y3749D01*
X142575Y3634D01*
X143450Y3749D01*
X144266Y4087D01*
X144966Y4625D01*
X145503Y5325D01*
X145841Y6140D01*
X145957Y7016D01*
Y8984D01*
X145841Y9860D01*
X145503Y10675D01*
X144966Y11376D01*
X144266Y11913D01*
X143450Y12251D01*
X142575Y12366D01*
D02*
G37*
G36*
X120500Y92913D02*
X119959Y92805D01*
X119501Y92499D01*
X119195Y92041D01*
X119087Y91500D01*
X119195Y90959D01*
X119501Y90501D01*
X119959Y90195D01*
X120500Y90087D01*
X121041Y90195D01*
X121499Y90501D01*
X121805Y90959D01*
X121913Y91500D01*
X121805Y92041D01*
X121499Y92499D01*
X121041Y92805D01*
X120500Y92913D01*
D02*
G37*
G36*
X142500Y103913D02*
X141959Y103805D01*
X141501Y103499D01*
X141195Y103041D01*
X141087Y102500D01*
X141195Y101959D01*
X141501Y101501D01*
X141959Y101195D01*
X142500Y101087D01*
X143041Y101195D01*
X143499Y101501D01*
X143805Y101959D01*
X143913Y102500D01*
X143805Y103041D01*
X143499Y103499D01*
X143041Y103805D01*
X142500Y103913D01*
D02*
G37*
G36*
X120000Y67413D02*
X119459Y67305D01*
X119001Y66999D01*
X118695Y66541D01*
X118587Y66000D01*
X118695Y65459D01*
X119001Y65001D01*
X119459Y64695D01*
X120000Y64587D01*
X120541Y64695D01*
X120999Y65001D01*
X121305Y65459D01*
X121413Y66000D01*
X121305Y66541D01*
X120999Y66999D01*
X120541Y67305D01*
X120000Y67413D01*
D02*
G37*
G36*
X162051Y105413D02*
X161511Y105305D01*
X161052Y104999D01*
X160746Y104541D01*
X160638Y104000D01*
X160746Y103459D01*
X161052Y103001D01*
X161511Y102695D01*
X162051Y102587D01*
X162592Y102695D01*
X163050Y103001D01*
X163357Y103459D01*
X163464Y104000D01*
X163357Y104541D01*
X163050Y104999D01*
X162592Y105305D01*
X162051Y105413D01*
D02*
G37*
G36*
X150000Y80413D02*
X149459Y80305D01*
X149001Y79999D01*
X148695Y79541D01*
X148587Y79000D01*
X148695Y78459D01*
X149001Y78001D01*
X149459Y77695D01*
X150000Y77587D01*
X150541Y77695D01*
X150999Y78001D01*
X151305Y78459D01*
X151413Y79000D01*
X151305Y79541D01*
X150999Y79999D01*
X150541Y80305D01*
X150000Y80413D01*
D02*
G37*
%LPD*%
D32*
X162575Y8000D02*
D03*
D39*
X51500Y91500D02*
D03*
X48500Y89000D02*
D03*
X108000Y57000D02*
D03*
X131000Y106000D02*
D03*
X126457Y103043D02*
D03*
X71500Y74500D02*
D03*
X36000Y94449D02*
D03*
X68000Y32000D02*
D03*
X37000Y75500D02*
D03*
X184449Y104000D02*
D03*
X168717Y93000D02*
D03*
X120500Y52502D02*
D03*
X194500Y18500D02*
D03*
X87500Y95000D02*
D03*
X96500Y31500D02*
D03*
X54500Y32000D02*
D03*
M02*
