G04 Layer_Color=16711935*
%FSLAX25Y25*%
%MOIN*%
G70*
G01*
G75*
%ADD41C,0.00787*%
%ADD42C,0.00500*%
%ADD43C,0.00394*%
%ADD45C,0.01000*%
%ADD47C,0.00300*%
%ADD75C,0.00000*%
%ADD76C,0.00197*%
%ADD77C,0.00100*%
G36*
X53618Y83966D02*
Y81998D01*
Y80029D01*
Y78061D01*
Y76092D01*
X52634D01*
Y78061D01*
Y80029D01*
Y81998D01*
Y83966D01*
Y87903D01*
X53618D01*
Y83966D01*
D02*
G37*
G36*
X69366Y83971D02*
Y82002D01*
Y80034D01*
Y78065D01*
Y76097D01*
X68382D01*
Y78065D01*
Y80034D01*
Y82002D01*
Y83971D01*
Y87908D01*
X69366D01*
Y83971D01*
D02*
G37*
D41*
X45193Y39543D02*
X44405D01*
X45193D01*
X36201Y86968D02*
X35413D01*
X36201D01*
D42*
X134996Y96595D02*
Y108405D01*
X149563Y96595D02*
Y108405D01*
X134996D02*
X149563D01*
X134996Y96595D02*
X149563D01*
X47752Y35606D02*
X65469D01*
Y49386D01*
X47752D02*
X65469D01*
X47752Y35606D02*
Y49386D01*
X224524Y24943D02*
Y87935D01*
X130035Y24943D02*
X224524D01*
X130035D02*
Y87935D01*
X224524D01*
X40138Y80866D02*
Y87165D01*
Y80866D02*
X44862D01*
Y87165D01*
X40138D02*
X44862D01*
D43*
X122370Y40252D02*
Y46748D01*
X118630Y40252D02*
Y46748D01*
X122370D01*
X118630Y40252D02*
X122370D01*
X53173Y95752D02*
Y102248D01*
X49827Y95752D02*
Y102248D01*
X53173D01*
X49827Y95752D02*
X53173D01*
X155752Y108130D02*
X162248D01*
X155752Y111870D02*
X162248D01*
Y108130D02*
Y111870D01*
X155752Y108130D02*
Y111870D01*
X184252Y16630D02*
X190748D01*
X184252Y20370D02*
X190748D01*
Y16630D02*
Y20370D01*
X184252Y16630D02*
Y20370D01*
X168520Y100370D02*
X175016D01*
X168520Y96630D02*
X175016D01*
X168520D02*
Y100370D01*
X175016Y96630D02*
Y100370D01*
X184252D02*
X190748D01*
X184252Y96630D02*
X190748D01*
X184252D02*
Y100370D01*
X190748Y96630D02*
Y100370D01*
X111370Y20252D02*
Y26748D01*
X107630Y20252D02*
Y26748D01*
X111370D01*
X107630Y20252D02*
X111370D01*
X118827Y96252D02*
Y102748D01*
X122173Y96252D02*
Y102748D01*
X118827Y96252D02*
X122173D01*
X118827Y102748D02*
X122173D01*
X112827Y69752D02*
Y76248D01*
X116173Y69752D02*
Y76248D01*
X112827Y69752D02*
X116173D01*
X112827Y76248D02*
X116173D01*
X90205Y101665D02*
X99260Y92610D01*
X90205D02*
X115795D01*
Y106390D01*
X90205D02*
X115795D01*
X90205Y92610D02*
Y106390D01*
X94252Y62870D02*
X100748D01*
X94252Y59130D02*
X100748D01*
X94252D02*
Y62870D01*
X100748Y59130D02*
Y62870D01*
X94252Y53130D02*
X100748D01*
X94252Y56870D02*
X100748D01*
Y53130D02*
Y56870D01*
X94252Y53130D02*
Y56870D01*
X101327Y20252D02*
Y26748D01*
X104673Y20252D02*
Y26748D01*
X101327Y20252D02*
X104673D01*
X101327Y26748D02*
X104673D01*
X94827Y20252D02*
Y26748D01*
X98173Y20252D02*
Y26748D01*
X94827Y20252D02*
X98173D01*
X94827Y26748D02*
X98173D01*
X88327Y20252D02*
Y26748D01*
X91673Y20252D02*
Y26748D01*
X88327Y20252D02*
X91673D01*
X88327Y26748D02*
X91673D01*
X81827Y20295D02*
Y26791D01*
X85173Y20295D02*
Y26791D01*
X81827Y20295D02*
X85173D01*
X81827Y26791D02*
X85173D01*
X75327Y20295D02*
Y26791D01*
X78673Y20295D02*
Y26791D01*
X75327Y20295D02*
X78673D01*
X75327Y26791D02*
X78673D01*
X83630Y54752D02*
Y61248D01*
X87370Y54752D02*
Y61248D01*
X83630Y54752D02*
X87370D01*
X83630Y61248D02*
X87370D01*
X74067Y54752D02*
Y61248D01*
X70327Y54752D02*
Y61248D01*
X74067D01*
X70327Y54752D02*
X74067D01*
X96370Y41752D02*
Y48248D01*
X92630Y41752D02*
Y48248D01*
X96370D01*
X92630Y41752D02*
X96370D01*
X88870D02*
Y48248D01*
X85130Y41752D02*
Y48248D01*
X88870D01*
X85130Y41752D02*
X88870D01*
X77630D02*
Y48248D01*
X81370Y41752D02*
Y48248D01*
X77630Y41752D02*
X81370D01*
X77630Y48248D02*
X81370D01*
X70327Y41752D02*
Y48248D01*
X74067Y41752D02*
Y48248D01*
X70327Y41752D02*
X74067D01*
X70327Y48248D02*
X74067D01*
X68827Y20252D02*
Y26748D01*
X72173Y20252D02*
Y26748D01*
X68827Y20252D02*
X72173D01*
X68827Y26748D02*
X72173D01*
X55827Y56252D02*
Y62748D01*
X59173Y56252D02*
Y62748D01*
X55827Y56252D02*
X59173D01*
X55827Y62748D02*
X59173D01*
X59173Y20252D02*
Y26748D01*
X55827Y20252D02*
Y26748D01*
X59173D01*
X55827Y20252D02*
X59173D01*
X49327Y56252D02*
Y62748D01*
X52673Y56252D02*
Y62748D01*
X49327Y56252D02*
X52673D01*
X49327Y62748D02*
X52673D01*
Y20252D02*
Y26748D01*
X49327Y20252D02*
Y26748D01*
X52673D01*
X49327Y20252D02*
X52673D01*
X62327Y56252D02*
Y62748D01*
X65673Y56252D02*
Y62748D01*
X62327Y56252D02*
X65673D01*
X62327Y62748D02*
X65673D01*
X65673Y20252D02*
Y26748D01*
X62327Y20252D02*
Y26748D01*
X65673D01*
X62327Y20252D02*
X65673D01*
X35673Y50295D02*
Y56791D01*
X32327Y50295D02*
Y56791D01*
X35673D01*
X32327Y50295D02*
X35673D01*
X28173D02*
Y56791D01*
X24827Y50295D02*
Y56791D01*
X28173D01*
X24827Y50295D02*
X28173D01*
X26500Y28327D02*
X32996D01*
X26500Y31673D02*
X32996D01*
Y28327D02*
Y31673D01*
X26500Y28327D02*
Y31673D01*
Y34827D02*
X32996D01*
X26500Y38173D02*
X32996D01*
Y34827D02*
Y38173D01*
X26500Y34827D02*
Y38173D01*
Y41327D02*
X32996D01*
X26500Y44673D02*
X32996D01*
Y41327D02*
Y44673D01*
X26500Y41327D02*
Y44673D01*
X75701Y85130D02*
X82197D01*
X75701Y88870D02*
X82197D01*
Y85130D02*
Y88870D01*
X75701Y85130D02*
Y88870D01*
Y77130D02*
X82197D01*
X75701Y80870D02*
X82197D01*
Y77130D02*
Y80870D01*
X75701Y77130D02*
Y80870D01*
X58252Y74173D02*
X64748D01*
X58252Y70827D02*
X64748D01*
X58252D02*
Y74173D01*
X64748Y70827D02*
Y74173D01*
X58252Y97673D02*
X64748D01*
X58252Y94327D02*
X64748D01*
X58252D02*
Y97673D01*
X64748Y94327D02*
Y97673D01*
X46496Y69752D02*
Y76248D01*
X42756Y69752D02*
Y76248D01*
X46496D01*
X42756Y69752D02*
X46496D01*
X42756Y95752D02*
Y102248D01*
X46496Y95752D02*
Y102248D01*
X42756Y95752D02*
X46496D01*
X42756Y102248D02*
X46496D01*
X-236Y51929D02*
Y66102D01*
Y103858D02*
X29409D01*
X-236Y66142D02*
Y103858D01*
Y66142D02*
X29409D01*
Y103858D01*
D45*
X158Y63740D02*
X1757D01*
Y62940D01*
X1490Y62674D01*
X957D01*
X691Y62940D01*
Y63740D01*
X1490Y61074D02*
X1757Y61341D01*
Y61874D01*
X1490Y62141D01*
X424D01*
X158Y61874D01*
Y61341D01*
X424Y61074D01*
X1757Y60541D02*
X158D01*
Y59741D01*
X424Y59475D01*
X691D01*
X957Y59741D01*
Y60541D01*
Y59741D01*
X1224Y59475D01*
X1490D01*
X1757Y59741D01*
Y60541D01*
Y56276D02*
Y57342D01*
X158D01*
Y56276D01*
X957Y57342D02*
Y56809D01*
X1757Y55743D02*
X158D01*
Y54943D01*
X424Y54676D01*
X1490D01*
X1757Y54943D01*
Y55743D01*
X1490Y53077D02*
X1757Y53343D01*
Y53877D01*
X1490Y54143D01*
X424D01*
X158Y53877D01*
Y53343D01*
X424Y53077D01*
X957D01*
Y53610D01*
X1757Y51477D02*
Y52544D01*
X158D01*
Y51477D01*
X957Y52544D02*
Y52011D01*
D47*
X95577Y77813D02*
X98909Y74480D01*
X95577D02*
X98909Y77813D01*
X95577Y76146D02*
X98909D01*
X97243Y74480D02*
Y77813D01*
D75*
X97377Y78947D02*
X97729Y78099D01*
X98577Y77747D01*
X99426Y78099D01*
X99777Y78947D01*
D76*
X88827Y82669D02*
X117173D01*
Y116331D01*
X88827D02*
X117173D01*
X88827Y82669D02*
Y116331D01*
D77*
X95327Y75987D02*
Y77987D01*
X92677D02*
X95327D01*
X92677Y75987D02*
Y77987D01*
Y75987D02*
X95327D01*
Y72247D02*
Y74247D01*
X92677D02*
X95327D01*
X92677Y72247D02*
Y74247D01*
Y72247D02*
X95327D01*
Y68507D02*
Y70507D01*
X92677D02*
X95327D01*
X92677Y68507D02*
Y70507D01*
Y68507D02*
X95327D01*
X101827D02*
Y70507D01*
Y68507D02*
X104477D01*
Y70507D01*
X101827D02*
X104477D01*
X101827Y72247D02*
Y74247D01*
Y72247D02*
X104477D01*
Y74247D01*
X101827D02*
X104477D01*
X101827Y75987D02*
Y77987D01*
Y75987D02*
X104477D01*
Y77987D01*
X101827D02*
X104477D01*
X95327Y67547D02*
X101827D01*
Y78947D01*
X95327D02*
X101827D01*
X95327Y67547D02*
Y78947D01*
M02*
