G04 Layer_Color=255*
%FSLAX25Y25*%
%MOIN*%
G70*
G01*
G75*
%ADD10R,0.03937X0.00984*%
%ADD11R,0.03937X0.03740*%
%ADD12R,0.03543X0.02756*%
%ADD13R,0.03740X0.03937*%
%ADD14R,0.03740X0.03740*%
%ADD15R,0.05276X0.11890*%
%ADD16R,0.12598X0.07283*%
%ADD17R,0.03543X0.07283*%
%ADD18R,0.04028X0.02197*%
G04:AMPARAMS|DCode=19|XSize=80.71mil|YSize=120.08mil|CornerRadius=2.02mil|HoleSize=0mil|Usage=FLASHONLY|Rotation=90.000|XOffset=0mil|YOffset=0mil|HoleType=Round|Shape=RoundedRectangle|*
%AMROUNDEDRECTD19*
21,1,0.08071,0.11604,0,0,90.0*
21,1,0.07667,0.12008,0,0,90.0*
1,1,0.00404,0.05802,0.03834*
1,1,0.00404,0.05802,-0.03834*
1,1,0.00404,-0.05802,-0.03834*
1,1,0.00404,-0.05802,0.03834*
%
%ADD19ROUNDEDRECTD19*%
G04:AMPARAMS|DCode=20|XSize=23.62mil|YSize=9.45mil|CornerRadius=1.98mil|HoleSize=0mil|Usage=FLASHONLY|Rotation=90.000|XOffset=0mil|YOffset=0mil|HoleType=Round|Shape=RoundedRectangle|*
%AMROUNDEDRECTD20*
21,1,0.02362,0.00548,0,0,90.0*
21,1,0.01965,0.00945,0,0,90.0*
1,1,0.00397,0.00274,0.00983*
1,1,0.00397,0.00274,-0.00983*
1,1,0.00397,-0.00274,-0.00983*
1,1,0.00397,-0.00274,0.00983*
%
%ADD20ROUNDEDRECTD20*%
G04:AMPARAMS|DCode=21|XSize=9.45mil|YSize=23.62mil|CornerRadius=1.98mil|HoleSize=0mil|Usage=FLASHONLY|Rotation=90.000|XOffset=0mil|YOffset=0mil|HoleType=Round|Shape=RoundedRectangle|*
%AMROUNDEDRECTD21*
21,1,0.00945,0.01965,0,0,90.0*
21,1,0.00548,0.02362,0,0,90.0*
1,1,0.00397,0.00983,0.00274*
1,1,0.00397,0.00983,-0.00274*
1,1,0.00397,-0.00983,-0.00274*
1,1,0.00397,-0.00983,0.00274*
%
%ADD21ROUNDEDRECTD21*%
%ADD22R,0.02756X0.03543*%
%ADD23R,0.04724X0.07874*%
%ADD24R,0.06693X0.04331*%
%ADD25R,0.04528X0.01181*%
%ADD26R,0.04528X0.02362*%
G04:AMPARAMS|DCode=27|XSize=25.98mil|YSize=11.81mil|CornerRadius=1.48mil|HoleSize=0mil|Usage=FLASHONLY|Rotation=0.000|XOffset=0mil|YOffset=0mil|HoleType=Round|Shape=RoundedRectangle|*
%AMROUNDEDRECTD27*
21,1,0.02598,0.00886,0,0,0.0*
21,1,0.02303,0.01181,0,0,0.0*
1,1,0.00295,0.01152,-0.00443*
1,1,0.00295,-0.01152,-0.00443*
1,1,0.00295,-0.01152,0.00443*
1,1,0.00295,0.01152,0.00443*
%
%ADD27ROUNDEDRECTD27*%
%ADD31R,0.05905X0.07874*%
%ADD32O,0.05905X0.07874*%
%ADD33C,0.01181*%
%ADD34R,0.10000X0.10000*%
%ADD35C,0.06000*%
%ADD36C,0.02559*%
%ADD37O,0.08268X0.04134*%
%ADD38O,0.07874X0.03937*%
D10*
X52681Y85937D02*
D03*
Y83969D02*
D03*
Y82000D02*
D03*
Y80032D02*
D03*
Y78063D02*
D03*
X69319D02*
D03*
Y80032D02*
D03*
Y82000D02*
D03*
Y83969D02*
D03*
Y85937D02*
D03*
D11*
X120500Y46551D02*
D03*
Y40449D02*
D03*
X109500Y26551D02*
D03*
Y20449D02*
D03*
X85500Y54949D02*
D03*
Y61051D02*
D03*
X72197D02*
D03*
Y54949D02*
D03*
X94500Y48051D02*
D03*
Y41949D02*
D03*
X87000Y48051D02*
D03*
Y41949D02*
D03*
X79500D02*
D03*
Y48051D02*
D03*
X72197Y41949D02*
D03*
Y48051D02*
D03*
X44626Y76051D02*
D03*
Y69949D02*
D03*
X44626Y95949D02*
D03*
Y102051D02*
D03*
D12*
X51500Y102543D02*
D03*
Y95457D02*
D03*
X120500Y95957D02*
D03*
Y103043D02*
D03*
X114500Y69457D02*
D03*
Y76543D02*
D03*
X103000Y19957D02*
D03*
Y27043D02*
D03*
X96500Y19957D02*
D03*
Y27043D02*
D03*
X90000Y19957D02*
D03*
Y27043D02*
D03*
X83500Y20000D02*
D03*
Y27087D02*
D03*
X77000Y20000D02*
D03*
Y27087D02*
D03*
X70500Y19957D02*
D03*
Y27043D02*
D03*
X57500Y55957D02*
D03*
Y63043D02*
D03*
Y27043D02*
D03*
Y19957D02*
D03*
X51000Y55957D02*
D03*
Y63043D02*
D03*
X51000Y27043D02*
D03*
Y19957D02*
D03*
X64000Y55957D02*
D03*
Y63043D02*
D03*
Y27043D02*
D03*
Y19957D02*
D03*
X34000Y57087D02*
D03*
Y50000D02*
D03*
X26500Y57087D02*
D03*
Y50000D02*
D03*
D13*
X162051Y110000D02*
D03*
X155949D02*
D03*
X190551Y18500D02*
D03*
X184449D02*
D03*
X168717Y98500D02*
D03*
X174819D02*
D03*
X184449D02*
D03*
X190551D02*
D03*
X94449Y61000D02*
D03*
X100551D02*
D03*
Y55000D02*
D03*
X94449D02*
D03*
X82000Y87000D02*
D03*
X75898D02*
D03*
X82000Y79000D02*
D03*
X75898D02*
D03*
D14*
X155500Y103354D02*
D03*
Y97646D02*
D03*
X100551Y47500D02*
D03*
Y41791D02*
D03*
D15*
X148343Y102500D02*
D03*
X136216D02*
D03*
D16*
X103000Y111705D02*
D03*
D17*
X112055Y87295D02*
D03*
X103000D02*
D03*
X93945D02*
D03*
D18*
X93313Y76987D02*
D03*
Y73247D02*
D03*
Y69507D02*
D03*
X103841D02*
D03*
Y73247D02*
D03*
Y76987D02*
D03*
D19*
X56610Y42496D02*
D03*
D20*
X49720Y48992D02*
D03*
X51689D02*
D03*
X53658D02*
D03*
X63500D02*
D03*
X61532D02*
D03*
X59563D02*
D03*
X57595D02*
D03*
X55626D02*
D03*
X49720Y36000D02*
D03*
X51689D02*
D03*
X53658D02*
D03*
X63500D02*
D03*
X61532D02*
D03*
X59563D02*
D03*
X57595D02*
D03*
X55626D02*
D03*
D21*
X65075Y45449D02*
D03*
Y39543D02*
D03*
X48146Y45449D02*
D03*
Y39543D02*
D03*
D22*
X33291Y30000D02*
D03*
X26205D02*
D03*
X33291Y36500D02*
D03*
X26205D02*
D03*
X33291Y43000D02*
D03*
X26205D02*
D03*
X57957Y72500D02*
D03*
X65043D02*
D03*
X57957Y96000D02*
D03*
X65043D02*
D03*
D23*
X191059Y85967D02*
D03*
X183185D02*
D03*
X175311D02*
D03*
X167437D02*
D03*
X159563D02*
D03*
X151689D02*
D03*
X143815D02*
D03*
X135941D02*
D03*
Y26912D02*
D03*
X143815D02*
D03*
X151689D02*
D03*
X159563D02*
D03*
X167437D02*
D03*
X175311D02*
D03*
X183185D02*
D03*
X191059D02*
D03*
D24*
X130035Y76124D02*
D03*
Y68250D02*
D03*
Y60376D02*
D03*
Y52502D02*
D03*
Y44628D02*
D03*
Y36754D02*
D03*
D25*
X28721Y91890D02*
D03*
Y89921D02*
D03*
Y87953D02*
D03*
Y78110D02*
D03*
Y80079D02*
D03*
Y82047D02*
D03*
Y85984D02*
D03*
Y84016D02*
D03*
D26*
Y75551D02*
D03*
Y94449D02*
D03*
Y72402D02*
D03*
Y97598D02*
D03*
D27*
X45394Y85984D02*
D03*
Y82047D02*
D03*
X39606D02*
D03*
Y84016D02*
D03*
Y85984D02*
D03*
D31*
X172575Y8000D02*
D03*
D32*
X162575D02*
D03*
X152575D02*
D03*
X142575D02*
D03*
X132575D02*
D03*
X122575D02*
D03*
D33*
X51591Y42496D02*
D03*
X61630D02*
D03*
X54543Y45547D02*
D03*
Y39445D02*
D03*
Y42496D02*
D03*
X58677Y45547D02*
D03*
Y39445D02*
D03*
Y42496D02*
D03*
D34*
X10000Y59500D02*
D03*
Y19500D02*
D03*
D35*
X7874Y110236D02*
D03*
Y7874D02*
D03*
X188976D02*
D03*
Y110236D02*
D03*
D36*
X24488Y96378D02*
D03*
Y73622D02*
D03*
D37*
X26457Y67992D02*
D03*
Y102008D02*
D03*
D38*
X10000Y67992D02*
D03*
Y102008D02*
D03*
M02*
