G04 Layer_Color=8388736*
%FSLAX25Y25*%
%MOIN*%
G70*
G01*
G75*
%ADD18R,0.04028X0.02197*%
%ADD48R,0.04528X0.01575*%
%ADD49R,0.04528X0.04331*%
%ADD50R,0.04134X0.03347*%
%ADD51R,0.04331X0.04528*%
%ADD52R,0.04331X0.04331*%
%ADD53R,0.05866X0.12480*%
%ADD54R,0.13189X0.07874*%
%ADD55R,0.04134X0.07874*%
G04:AMPARAMS|DCode=56|XSize=86.61mil|YSize=125.98mil|CornerRadius=4.97mil|HoleSize=0mil|Usage=FLASHONLY|Rotation=90.000|XOffset=0mil|YOffset=0mil|HoleType=Round|Shape=RoundedRectangle|*
%AMROUNDEDRECTD56*
21,1,0.08661,0.11604,0,0,90.0*
21,1,0.07667,0.12598,0,0,90.0*
1,1,0.00994,0.05802,0.03834*
1,1,0.00994,0.05802,-0.03834*
1,1,0.00994,-0.05802,-0.03834*
1,1,0.00994,-0.05802,0.03834*
%
%ADD56ROUNDEDRECTD56*%
G04:AMPARAMS|DCode=57|XSize=29.53mil|YSize=15.35mil|CornerRadius=4.94mil|HoleSize=0mil|Usage=FLASHONLY|Rotation=90.000|XOffset=0mil|YOffset=0mil|HoleType=Round|Shape=RoundedRectangle|*
%AMROUNDEDRECTD57*
21,1,0.02953,0.00548,0,0,90.0*
21,1,0.01965,0.01535,0,0,90.0*
1,1,0.00987,0.00274,0.00983*
1,1,0.00987,0.00274,-0.00983*
1,1,0.00987,-0.00274,-0.00983*
1,1,0.00987,-0.00274,0.00983*
%
%ADD57ROUNDEDRECTD57*%
G04:AMPARAMS|DCode=58|XSize=15.35mil|YSize=29.53mil|CornerRadius=4.94mil|HoleSize=0mil|Usage=FLASHONLY|Rotation=90.000|XOffset=0mil|YOffset=0mil|HoleType=Round|Shape=RoundedRectangle|*
%AMROUNDEDRECTD58*
21,1,0.01535,0.01965,0,0,90.0*
21,1,0.00548,0.02953,0,0,90.0*
1,1,0.00987,0.00983,0.00274*
1,1,0.00987,0.00983,-0.00274*
1,1,0.00987,-0.00983,-0.00274*
1,1,0.00987,-0.00983,0.00274*
%
%ADD58ROUNDEDRECTD58*%
%ADD59R,0.03347X0.04134*%
%ADD60R,0.05315X0.08465*%
%ADD61R,0.07283X0.04921*%
%ADD62R,0.05118X0.01772*%
%ADD63R,0.05118X0.02953*%
G04:AMPARAMS|DCode=64|XSize=31.89mil|YSize=17.72mil|CornerRadius=4.43mil|HoleSize=0mil|Usage=FLASHONLY|Rotation=0.000|XOffset=0mil|YOffset=0mil|HoleType=Round|Shape=RoundedRectangle|*
%AMROUNDEDRECTD64*
21,1,0.03189,0.00886,0,0,0.0*
21,1,0.02303,0.01772,0,0,0.0*
1,1,0.00886,0.01152,-0.00443*
1,1,0.00886,-0.01152,-0.00443*
1,1,0.00886,-0.01152,0.00443*
1,1,0.00886,0.01152,0.00443*
%
%ADD64ROUNDEDRECTD64*%
%ADD65R,0.06496X0.08465*%
%ADD66O,0.06496X0.08465*%
%ADD67C,0.01772*%
%ADD68R,0.10591X0.10591*%
%ADD69C,0.06591*%
%ADD70C,0.03150*%
%ADD71O,0.08858X0.04724*%
%ADD72O,0.08465X0.04528*%
%ADD73C,0.02362*%
G36*
X62452Y46932D02*
X62483Y46930D01*
X62514Y46926D01*
X62544Y46920D01*
X62574Y46913D01*
X62604Y46904D01*
X62633Y46894D01*
X62661Y46882D01*
X62689Y46869D01*
X62717Y46854D01*
X62743Y46838D01*
X62768Y46820D01*
X62793Y46801D01*
X62816Y46781D01*
X62839Y46760D01*
X62860Y46738D01*
X62880Y46714D01*
X62899Y46690D01*
X62916Y46664D01*
X62933Y46638D01*
X62947Y46611D01*
X62961Y46583D01*
X62973Y46554D01*
X62983Y46525D01*
X62992Y46495D01*
X62999Y46465D01*
X63004Y46435D01*
X63009Y46404D01*
X63011Y46373D01*
X63012Y46343D01*
Y44378D01*
X63012Y44378D01*
X63012Y44377D01*
X63012Y44377D01*
X63012Y44377D01*
X63012Y44377D01*
X63012Y44377D01*
X63012Y44377D01*
X63012Y44376D01*
X63012Y44376D01*
X63012Y44376D01*
X63012Y44376D01*
X63013Y44376D01*
X63013Y44376D01*
X63013Y44375D01*
X63013Y44375D01*
X63013Y44375D01*
X63013Y44375D01*
X63013Y44375D01*
X63014Y44375D01*
X63014Y44374D01*
X63014Y44374D01*
X63014Y44374D01*
X63014Y44374D01*
X63015Y44374D01*
X63015Y44374D01*
X63015Y44374D01*
X63015Y44374D01*
X63015Y44374D01*
X63016Y44374D01*
X63016Y44374D01*
X66063D01*
X66094Y44373D01*
X66125Y44371D01*
X66155Y44367D01*
X66186Y44361D01*
X66216Y44354D01*
X66246Y44345D01*
X66275Y44335D01*
X66303Y44323D01*
X66331Y44310D01*
X66358Y44295D01*
X66385Y44279D01*
X66410Y44261D01*
X66435Y44242D01*
X66458Y44222D01*
X66481Y44201D01*
X66502Y44179D01*
X66522Y44155D01*
X66541Y44131D01*
X66558Y44105D01*
X66574Y44079D01*
X66589Y44052D01*
X66602Y44024D01*
X66614Y43995D01*
X66625Y43966D01*
X66633Y43936D01*
X66641Y43906D01*
X66646Y43876D01*
X66650Y43845D01*
X66653Y43814D01*
X66654Y43784D01*
Y43370D01*
X66653Y43339D01*
X66650Y43309D01*
X66646Y43278D01*
X66641Y43248D01*
X66634Y43218D01*
X66625Y43189D01*
X66615Y43160D01*
X66603Y43132D01*
X66590Y43104D01*
X66575Y43077D01*
X66559Y43051D01*
X66541Y43025D01*
X66523Y43001D01*
X66503Y42978D01*
X66482Y42955D01*
X66460Y42934D01*
X66436Y42914D01*
X66412Y42895D01*
X66386Y42878D01*
X66360Y42862D01*
X66333Y42847D01*
X66306Y42834D01*
X66277Y42822D01*
X66248Y42812D01*
X66219Y42803D01*
X66189Y42796D01*
X66159Y42791D01*
X66128Y42787D01*
X66098Y42784D01*
X66067Y42783D01*
X64591D01*
Y42213D01*
X64591Y42212D01*
X64591Y42212D01*
X64591Y42212D01*
X64591Y42212D01*
X64591Y42212D01*
X64591Y42211D01*
X64591Y42211D01*
X64591Y42211D01*
X64591Y42211D01*
X64591Y42211D01*
X64591Y42210D01*
X64591Y42210D01*
X64591Y42210D01*
X64592Y42210D01*
X64592Y42210D01*
X64592Y42210D01*
X64592Y42210D01*
X64592Y42209D01*
X64592Y42209D01*
X64592Y42209D01*
X64593Y42209D01*
X64593Y42209D01*
X64593Y42209D01*
X64593Y42209D01*
X64593Y42209D01*
X64594Y42209D01*
X64594Y42209D01*
X64594Y42209D01*
X64594Y42209D01*
X66063D01*
X66094Y42208D01*
X66125Y42205D01*
X66155Y42201D01*
X66186Y42196D01*
X66216Y42189D01*
X66246Y42180D01*
X66275Y42169D01*
X66303Y42158D01*
X66331Y42144D01*
X66358Y42129D01*
X66385Y42113D01*
X66410Y42096D01*
X66435Y42077D01*
X66458Y42057D01*
X66481Y42036D01*
X66502Y42013D01*
X66522Y41990D01*
X66541Y41965D01*
X66558Y41940D01*
X66574Y41913D01*
X66589Y41886D01*
X66602Y41858D01*
X66614Y41830D01*
X66625Y41801D01*
X66633Y41771D01*
X66641Y41741D01*
X66646Y41710D01*
X66650Y41680D01*
X66653Y41649D01*
X66654Y41618D01*
Y41201D01*
X66653Y41170D01*
X66650Y41140D01*
X66646Y41110D01*
X66641Y41080D01*
X66634Y41050D01*
X66625Y41021D01*
X66615Y40992D01*
X66603Y40964D01*
X66590Y40936D01*
X66575Y40909D01*
X66559Y40883D01*
X66542Y40858D01*
X66524Y40834D01*
X66504Y40811D01*
X66483Y40789D01*
X66461Y40768D01*
X66438Y40748D01*
X66413Y40729D01*
X66388Y40712D01*
X66362Y40696D01*
X66335Y40682D01*
X66308Y40668D01*
X66280Y40657D01*
X66251Y40647D01*
X66222Y40638D01*
X66192Y40631D01*
X66162Y40625D01*
X66132Y40621D01*
X66101Y40619D01*
X66071Y40618D01*
X63016D01*
Y38658D01*
X63015Y38626D01*
X63012Y38595D01*
X63008Y38564D01*
X63003Y38533D01*
X62995Y38503D01*
X62986Y38473D01*
X62976Y38443D01*
X62964Y38414D01*
X62950Y38386D01*
X62936Y38358D01*
X62919Y38331D01*
X62902Y38306D01*
X62882Y38281D01*
X62862Y38257D01*
X62840Y38234D01*
X62818Y38213D01*
X62794Y38192D01*
X62769Y38173D01*
X62743Y38156D01*
X62717Y38139D01*
X62689Y38124D01*
X62661Y38111D01*
X62632Y38099D01*
X62602Y38088D01*
X62572Y38079D01*
X62542Y38072D01*
X62511Y38066D01*
X62480Y38062D01*
X62449Y38060D01*
X62417Y38059D01*
X50807D01*
X50776Y38060D01*
X50744Y38062D01*
X50713Y38066D01*
X50683Y38072D01*
X50652Y38079D01*
X50622Y38088D01*
X50593Y38099D01*
X50564Y38111D01*
X50535Y38124D01*
X50508Y38139D01*
X50481Y38156D01*
X50455Y38173D01*
X50431Y38192D01*
X50407Y38213D01*
X50384Y38234D01*
X50362Y38257D01*
X50342Y38281D01*
X50323Y38306D01*
X50305Y38331D01*
X50289Y38358D01*
X50274Y38386D01*
X50260Y38414D01*
X50248Y38443D01*
X50238Y38473D01*
X50229Y38503D01*
X50222Y38533D01*
X50216Y38564D01*
X50212Y38595D01*
X50209Y38626D01*
X50209Y38658D01*
Y40614D01*
X50209Y40614D01*
X50209Y40615D01*
X50209Y40615D01*
X50209Y40615D01*
X50208Y40615D01*
X50208Y40615D01*
X50208Y40616D01*
X50208Y40616D01*
X50208Y40616D01*
X50208Y40616D01*
X50208Y40616D01*
X50208Y40617D01*
X50208Y40617D01*
X50208Y40617D01*
X50208Y40617D01*
X50207Y40617D01*
X50207Y40617D01*
X50207Y40617D01*
X50207Y40617D01*
X50207Y40618D01*
X50207Y40618D01*
X50206Y40618D01*
X50206Y40618D01*
X50206Y40618D01*
X50206Y40618D01*
X50205Y40618D01*
X50205Y40618D01*
X50205Y40618D01*
X50205Y40618D01*
X50205Y40618D01*
X47161D01*
X47130Y40619D01*
X47099Y40621D01*
X47068Y40626D01*
X47037Y40631D01*
X47006Y40639D01*
X46977Y40647D01*
X46947Y40658D01*
X46918Y40670D01*
X46890Y40683D01*
X46862Y40698D01*
X46836Y40715D01*
X46810Y40732D01*
X46785Y40751D01*
X46761Y40772D01*
X46738Y40793D01*
X46717Y40816D01*
X46696Y40840D01*
X46677Y40865D01*
X46659Y40891D01*
X46643Y40917D01*
X46628Y40945D01*
X46615Y40973D01*
X46603Y41002D01*
X46592Y41032D01*
X46583Y41062D01*
X46576Y41092D01*
X46570Y41123D01*
X46566Y41154D01*
X46564Y41185D01*
X46563Y41216D01*
Y41610D01*
X46564Y41642D01*
X46566Y41673D01*
X46570Y41704D01*
X46576Y41735D01*
X46583Y41765D01*
X46592Y41795D01*
X46603Y41825D01*
X46615Y41854D01*
X46628Y41882D01*
X46643Y41909D01*
X46659Y41936D01*
X46677Y41962D01*
X46696Y41987D01*
X46717Y42011D01*
X46738Y42033D01*
X46761Y42055D01*
X46785Y42075D01*
X46810Y42094D01*
X46836Y42112D01*
X46862Y42129D01*
X46890Y42143D01*
X46918Y42157D01*
X46947Y42169D01*
X46977Y42179D01*
X47006Y42188D01*
X47037Y42196D01*
X47068Y42201D01*
X47099Y42205D01*
X47130Y42208D01*
X47161Y42209D01*
X48630D01*
Y42783D01*
X47154D01*
X47123Y42784D01*
X47092Y42787D01*
X47061Y42791D01*
X47031Y42796D01*
X47001Y42804D01*
X46971Y42812D01*
X46942Y42823D01*
X46913Y42834D01*
X46885Y42848D01*
X46858Y42863D01*
X46832Y42879D01*
X46806Y42896D01*
X46782Y42915D01*
X46758Y42935D01*
X46736Y42956D01*
X46715Y42979D01*
X46695Y43002D01*
X46676Y43027D01*
X46658Y43052D01*
X46642Y43079D01*
X46627Y43106D01*
X46614Y43134D01*
X46602Y43162D01*
X46592Y43191D01*
X46583Y43221D01*
X46576Y43251D01*
X46570Y43282D01*
X46566Y43312D01*
X46564Y43343D01*
X46563Y43374D01*
Y43780D01*
X46564Y43811D01*
X46566Y43842D01*
X46570Y43872D01*
X46576Y43903D01*
X46583Y43933D01*
X46592Y43963D01*
X46602Y43993D01*
X46614Y44021D01*
X46628Y44049D01*
X46643Y44077D01*
X46659Y44103D01*
X46676Y44129D01*
X46696Y44154D01*
X46716Y44177D01*
X46737Y44200D01*
X46760Y44221D01*
X46783Y44241D01*
X46808Y44260D01*
X46834Y44278D01*
X46860Y44294D01*
X46888Y44309D01*
X46916Y44323D01*
X46944Y44335D01*
X46974Y44345D01*
X47004Y44354D01*
X47034Y44361D01*
X47065Y44367D01*
X47095Y44371D01*
X47126Y44373D01*
X47157Y44374D01*
X50205D01*
Y46335D01*
X50205Y46366D01*
X50208Y46397D01*
X50212Y46428D01*
X50218Y46459D01*
X50225Y46490D01*
X50234Y46520D01*
X50244Y46549D01*
X50257Y46578D01*
X50270Y46606D01*
X50285Y46634D01*
X50301Y46661D01*
X50319Y46686D01*
X50338Y46711D01*
X50358Y46735D01*
X50380Y46758D01*
X50403Y46779D01*
X50427Y46800D01*
X50451Y46819D01*
X50477Y46837D01*
X50504Y46853D01*
X50532Y46868D01*
X50560Y46881D01*
X50589Y46893D01*
X50618Y46904D01*
X50648Y46913D01*
X50679Y46920D01*
X50709Y46926D01*
X50741Y46930D01*
X50772Y46932D01*
X50803Y46933D01*
X62421D01*
X62452Y46932D01*
D02*
G37*
D18*
X93313Y76987D02*
D03*
Y73247D02*
D03*
Y69507D02*
D03*
X103841D02*
D03*
Y73247D02*
D03*
Y76987D02*
D03*
D48*
X52681Y85937D02*
D03*
Y83969D02*
D03*
Y82000D02*
D03*
Y80032D02*
D03*
Y78063D02*
D03*
X69319D02*
D03*
Y80032D02*
D03*
Y82000D02*
D03*
Y83969D02*
D03*
Y85937D02*
D03*
D49*
X120500Y46551D02*
D03*
Y40449D02*
D03*
X109500Y26551D02*
D03*
Y20449D02*
D03*
X85500Y54949D02*
D03*
Y61051D02*
D03*
X72197D02*
D03*
Y54949D02*
D03*
X94500Y48051D02*
D03*
Y41949D02*
D03*
X87000Y48051D02*
D03*
Y41949D02*
D03*
X79500D02*
D03*
Y48051D02*
D03*
X72197Y41949D02*
D03*
Y48051D02*
D03*
X44626Y76051D02*
D03*
Y69949D02*
D03*
X44626Y95949D02*
D03*
Y102051D02*
D03*
D50*
X51500Y102543D02*
D03*
Y95457D02*
D03*
X120500Y95957D02*
D03*
Y103043D02*
D03*
X114500Y69457D02*
D03*
Y76543D02*
D03*
X103000Y19957D02*
D03*
Y27043D02*
D03*
X96500Y19957D02*
D03*
Y27043D02*
D03*
X90000Y19957D02*
D03*
Y27043D02*
D03*
X83500Y20000D02*
D03*
Y27087D02*
D03*
X77000Y20000D02*
D03*
Y27087D02*
D03*
X70500Y19957D02*
D03*
Y27043D02*
D03*
X57500Y55957D02*
D03*
Y63043D02*
D03*
Y27043D02*
D03*
Y19957D02*
D03*
X51000Y55957D02*
D03*
Y63043D02*
D03*
X51000Y27043D02*
D03*
Y19957D02*
D03*
X64000Y55957D02*
D03*
Y63043D02*
D03*
Y27043D02*
D03*
Y19957D02*
D03*
X34000Y57087D02*
D03*
Y50000D02*
D03*
X26500Y57087D02*
D03*
Y50000D02*
D03*
D51*
X162051Y110000D02*
D03*
X155949D02*
D03*
X190551Y18500D02*
D03*
X184449D02*
D03*
X168717Y98500D02*
D03*
X174819D02*
D03*
X184449D02*
D03*
X190551D02*
D03*
X94449Y61000D02*
D03*
X100551D02*
D03*
Y55000D02*
D03*
X94449D02*
D03*
X82000Y87000D02*
D03*
X75898D02*
D03*
X82000Y79000D02*
D03*
X75898D02*
D03*
D52*
X155500Y103354D02*
D03*
Y97646D02*
D03*
X100551Y47500D02*
D03*
Y41791D02*
D03*
D53*
X148343Y102500D02*
D03*
X136216D02*
D03*
D54*
X103000Y111705D02*
D03*
D55*
X112055Y87295D02*
D03*
X103000D02*
D03*
X93945D02*
D03*
D56*
X56610Y42496D02*
D03*
D57*
X49720Y48992D02*
D03*
X51689D02*
D03*
X53658D02*
D03*
X63500D02*
D03*
X61532D02*
D03*
X59563D02*
D03*
X57595D02*
D03*
X55626D02*
D03*
X49720Y36000D02*
D03*
X51689D02*
D03*
X53658D02*
D03*
X63500D02*
D03*
X61532D02*
D03*
X59563D02*
D03*
X57595D02*
D03*
X55626D02*
D03*
D58*
X65075Y45449D02*
D03*
Y39543D02*
D03*
X48146Y45449D02*
D03*
Y39543D02*
D03*
D59*
X33291Y30000D02*
D03*
X26205D02*
D03*
X33291Y36500D02*
D03*
X26205D02*
D03*
X33291Y43000D02*
D03*
X26205D02*
D03*
X57957Y72500D02*
D03*
X65043D02*
D03*
X57957Y96000D02*
D03*
X65043D02*
D03*
D60*
X191059Y85967D02*
D03*
X183185D02*
D03*
X175311D02*
D03*
X167437D02*
D03*
X159563D02*
D03*
X151689D02*
D03*
X143815D02*
D03*
X135941D02*
D03*
Y26912D02*
D03*
X143815D02*
D03*
X151689D02*
D03*
X159563D02*
D03*
X167437D02*
D03*
X175311D02*
D03*
X183185D02*
D03*
X191059D02*
D03*
D61*
X130035Y76124D02*
D03*
Y68250D02*
D03*
Y60376D02*
D03*
Y52502D02*
D03*
Y44628D02*
D03*
Y36754D02*
D03*
D62*
X28721Y91890D02*
D03*
Y89921D02*
D03*
Y87953D02*
D03*
Y78110D02*
D03*
Y80079D02*
D03*
Y82047D02*
D03*
Y85984D02*
D03*
Y84016D02*
D03*
D63*
Y75551D02*
D03*
Y94449D02*
D03*
Y72402D02*
D03*
Y97598D02*
D03*
D64*
X45394Y85984D02*
D03*
Y82047D02*
D03*
X39606D02*
D03*
Y84016D02*
D03*
Y85984D02*
D03*
D65*
X172575Y8000D02*
D03*
D66*
X162575D02*
D03*
X152575D02*
D03*
X142575D02*
D03*
X132575D02*
D03*
X122575D02*
D03*
D67*
X51591Y42496D02*
D03*
X61630D02*
D03*
X54543Y45547D02*
D03*
Y39445D02*
D03*
Y42496D02*
D03*
X58677Y45547D02*
D03*
Y39445D02*
D03*
Y42496D02*
D03*
D68*
X10000Y59500D02*
D03*
Y19500D02*
D03*
D69*
X7874Y110236D02*
D03*
Y7874D02*
D03*
X188976D02*
D03*
Y110236D02*
D03*
D70*
X24488Y96378D02*
D03*
Y73622D02*
D03*
D71*
X26457Y67992D02*
D03*
Y102008D02*
D03*
D72*
X10000Y67992D02*
D03*
Y102008D02*
D03*
D73*
X36000Y81484D02*
D03*
X33500Y86000D02*
D03*
X36000Y88500D02*
D03*
X33500Y83500D02*
D03*
X49000Y79500D02*
D03*
X51500Y91500D02*
D03*
X48500Y89000D02*
D03*
X108000Y57000D02*
D03*
X131000Y106000D02*
D03*
X126457Y103043D02*
D03*
X87500Y90500D02*
D03*
X95500Y37500D02*
D03*
X105500Y58500D02*
D03*
X150000Y79000D02*
D03*
X183185Y34685D02*
D03*
X86500Y69500D02*
D03*
X103000Y11000D02*
D03*
X90000D02*
D03*
X120500Y91500D02*
D03*
X120000Y66000D02*
D03*
X56500Y102500D02*
D03*
X63500Y32000D02*
D03*
X52500Y70000D02*
D03*
X58000Y91500D02*
D03*
X70500Y11000D02*
D03*
X90000Y55000D02*
D03*
X80500D02*
D03*
X71500Y74500D02*
D03*
X36051Y97598D02*
D03*
X36000Y94449D02*
D03*
X68000Y32000D02*
D03*
X83500Y31500D02*
D03*
X37000Y72402D02*
D03*
Y75500D02*
D03*
X142500Y102500D02*
D03*
X162051Y104000D02*
D03*
X184449D02*
D03*
X168717Y93000D02*
D03*
X120500Y52502D02*
D03*
X44500Y42500D02*
D03*
X124000Y26912D02*
D03*
X109500Y11000D02*
D03*
X194500Y18500D02*
D03*
X175311Y19000D02*
D03*
X87500Y95000D02*
D03*
Y87000D02*
D03*
Y79000D02*
D03*
X96500Y31500D02*
D03*
X66500Y51000D02*
D03*
X54500Y32000D02*
D03*
X71000D02*
D03*
X51000Y52500D02*
D03*
M02*
