G04 Layer_Color=32768*
%FSLAX25Y25*%
%MOIN*%
G70*
G01*
G75*
%ADD43C,0.00394*%
%ADD44C,0.00600*%
%ADD76C,0.00197*%
G36*
X102827Y79086D02*
X106855D01*
Y67409D01*
X102827D01*
Y66547D01*
X94327D01*
Y67409D01*
X90299D01*
Y79086D01*
X94327D01*
Y79947D01*
X102827D01*
Y79086D01*
D02*
G37*
D43*
X118630Y43500D02*
X122370D01*
X120500Y41630D02*
Y45370D01*
X123453Y37496D02*
Y49504D01*
X117547Y37496D02*
Y49504D01*
X123453D01*
X117547Y37496D02*
X123453D01*
X49827Y99000D02*
X53173D01*
X51500Y97327D02*
Y100673D01*
X54256Y92996D02*
Y105004D01*
X48744Y92996D02*
Y105004D01*
X54256D01*
X48744Y92996D02*
X54256D01*
X159000Y108130D02*
Y111870D01*
X157130Y110000D02*
X160870D01*
X152996Y107047D02*
X165004D01*
X152996Y112953D02*
X165004D01*
Y107047D02*
Y112953D01*
X152996Y107047D02*
Y112953D01*
X187500Y16630D02*
Y20370D01*
X185630Y18500D02*
X189370D01*
X181496Y15547D02*
X193504D01*
X181496Y21453D02*
X193504D01*
Y15547D02*
Y21453D01*
X181496Y15547D02*
Y21453D01*
X171768Y96630D02*
Y100370D01*
X169898Y98500D02*
X173638D01*
X165764Y101453D02*
X177772D01*
X165764Y95547D02*
X177772D01*
X165764D02*
Y101453D01*
X177772Y95547D02*
Y101453D01*
X187500Y96630D02*
Y100370D01*
X185630Y98500D02*
X189370D01*
X181496Y101453D02*
X193504D01*
X181496Y95547D02*
X193504D01*
X181496D02*
Y101453D01*
X193504Y95547D02*
Y101453D01*
X107630Y23500D02*
X111370D01*
X109500Y21630D02*
Y25370D01*
X112453Y17496D02*
Y29504D01*
X106547Y17496D02*
Y29504D01*
X112453D01*
X106547Y17496D02*
X112453D01*
X118827Y99500D02*
X122173D01*
X120500Y97827D02*
Y101173D01*
X117744Y93496D02*
Y105504D01*
X123256Y93496D02*
Y105504D01*
X117744Y93496D02*
X123256D01*
X117744Y105504D02*
X123256D01*
X112827Y73000D02*
X116173D01*
X114500Y71327D02*
Y74673D01*
X111744Y66996D02*
Y79004D01*
X117256Y66996D02*
Y79004D01*
X111744Y66996D02*
X117256D01*
X111744Y79004D02*
X117256D01*
X97500Y59130D02*
Y62870D01*
X95630Y61000D02*
X99370D01*
X91496Y63953D02*
X103504D01*
X91496Y58047D02*
X103504D01*
X91496D02*
Y63953D01*
X103504Y58047D02*
Y63953D01*
X97500Y53130D02*
Y56870D01*
X95630Y55000D02*
X99370D01*
X91496Y52047D02*
X103504D01*
X91496Y57953D02*
X103504D01*
Y52047D02*
Y57953D01*
X91496Y52047D02*
Y57953D01*
X101327Y23500D02*
X104673D01*
X103000Y21827D02*
Y25173D01*
X100244Y17496D02*
Y29504D01*
X105756Y17496D02*
Y29504D01*
X100244Y17496D02*
X105756D01*
X100244Y29504D02*
X105756D01*
X94827Y23500D02*
X98173D01*
X96500Y21827D02*
Y25173D01*
X93744Y17496D02*
Y29504D01*
X99256Y17496D02*
Y29504D01*
X93744Y17496D02*
X99256D01*
X93744Y29504D02*
X99256D01*
X88327Y23500D02*
X91673D01*
X90000Y21827D02*
Y25173D01*
X87244Y17496D02*
Y29504D01*
X92756Y17496D02*
Y29504D01*
X87244Y17496D02*
X92756D01*
X87244Y29504D02*
X92756D01*
X81827Y23543D02*
X85173D01*
X83500Y21870D02*
Y25216D01*
X80744Y17539D02*
Y29547D01*
X86256Y17539D02*
Y29547D01*
X80744Y17539D02*
X86256D01*
X80744Y29547D02*
X86256D01*
X75327Y23543D02*
X78673D01*
X77000Y21870D02*
Y25216D01*
X74244Y17539D02*
Y29547D01*
X79756Y17539D02*
Y29547D01*
X74244Y17539D02*
X79756D01*
X74244Y29547D02*
X79756D01*
X83630Y58000D02*
X87370D01*
X85500Y56130D02*
Y59870D01*
X82547Y51996D02*
Y64004D01*
X88453Y51996D02*
Y64004D01*
X82547Y51996D02*
X88453D01*
X82547Y64004D02*
X88453D01*
X70327Y58000D02*
X74067D01*
X72197Y56130D02*
Y59870D01*
X75150Y51996D02*
Y64004D01*
X69244Y51996D02*
Y64004D01*
X75150D01*
X69244Y51996D02*
X75150D01*
X92630Y45000D02*
X96370D01*
X94500Y43130D02*
Y46870D01*
X97453Y38996D02*
Y51004D01*
X91547Y38996D02*
Y51004D01*
X97453D01*
X91547Y38996D02*
X97453D01*
X85130Y45000D02*
X88870D01*
X87000Y43130D02*
Y46870D01*
X89953Y38996D02*
Y51004D01*
X84047Y38996D02*
Y51004D01*
X89953D01*
X84047Y38996D02*
X89953D01*
X77630Y45000D02*
X81370D01*
X79500Y43130D02*
Y46870D01*
X76547Y38996D02*
Y51004D01*
X82453Y38996D02*
Y51004D01*
X76547Y38996D02*
X82453D01*
X76547Y51004D02*
X82453D01*
X70327Y45000D02*
X74067D01*
X72197Y43130D02*
Y46870D01*
X69244Y38996D02*
Y51004D01*
X75150Y38996D02*
Y51004D01*
X69244Y38996D02*
X75150D01*
X69244Y51004D02*
X75150D01*
X68827Y23500D02*
X72173D01*
X70500Y21827D02*
Y25173D01*
X67744Y17496D02*
Y29504D01*
X73256Y17496D02*
Y29504D01*
X67744Y17496D02*
X73256D01*
X67744Y29504D02*
X73256D01*
X55827Y59500D02*
X59173D01*
X57500Y57827D02*
Y61173D01*
X54744Y53496D02*
Y65504D01*
X60256Y53496D02*
Y65504D01*
X54744Y53496D02*
X60256D01*
X54744Y65504D02*
X60256D01*
X55827Y23500D02*
X59173D01*
X57500Y21827D02*
Y25173D01*
X60256Y17496D02*
Y29504D01*
X54744Y17496D02*
Y29504D01*
X60256D01*
X54744Y17496D02*
X60256D01*
X49327Y59500D02*
X52673D01*
X51000Y57827D02*
Y61173D01*
X48244Y53496D02*
Y65504D01*
X53756Y53496D02*
Y65504D01*
X48244Y53496D02*
X53756D01*
X48244Y65504D02*
X53756D01*
X49327Y23500D02*
X52673D01*
X51000Y21827D02*
Y25173D01*
X53756Y17496D02*
Y29504D01*
X48244Y17496D02*
Y29504D01*
X53756D01*
X48244Y17496D02*
X53756D01*
X62327Y59500D02*
X65673D01*
X64000Y57827D02*
Y61173D01*
X61244Y53496D02*
Y65504D01*
X66756Y53496D02*
Y65504D01*
X61244Y53496D02*
X66756D01*
X61244Y65504D02*
X66756D01*
X62327Y23500D02*
X65673D01*
X64000Y21827D02*
Y25173D01*
X66756Y17496D02*
Y29504D01*
X61244Y17496D02*
Y29504D01*
X66756D01*
X61244Y17496D02*
X66756D01*
X32327Y53543D02*
X35673D01*
X34000Y51870D02*
Y55216D01*
X36756Y47539D02*
Y59547D01*
X31244Y47539D02*
Y59547D01*
X36756D01*
X31244Y47539D02*
X36756D01*
X24827Y53543D02*
X28173D01*
X26500Y51870D02*
Y55216D01*
X29256Y47539D02*
Y59547D01*
X23744Y47539D02*
Y59547D01*
X29256D01*
X23744Y47539D02*
X29256D01*
X29748Y28327D02*
Y31673D01*
X28075Y30000D02*
X31421D01*
X23744Y27244D02*
X35752D01*
X23744Y32756D02*
X35752D01*
Y27244D02*
Y32756D01*
X23744Y27244D02*
Y32756D01*
X29748Y34827D02*
Y38173D01*
X28075Y36500D02*
X31421D01*
X23744Y33744D02*
X35752D01*
X23744Y39256D02*
X35752D01*
Y33744D02*
Y39256D01*
X23744Y33744D02*
Y39256D01*
X29748Y41327D02*
Y44673D01*
X28075Y43000D02*
X31421D01*
X23744Y40244D02*
X35752D01*
X23744Y45756D02*
X35752D01*
Y40244D02*
Y45756D01*
X23744Y40244D02*
Y45756D01*
X78949Y85130D02*
Y88870D01*
X77079Y87000D02*
X80819D01*
X72945Y84047D02*
X84953D01*
X72945Y89953D02*
X84953D01*
Y84047D02*
Y89953D01*
X72945Y84047D02*
Y89953D01*
X78949Y77130D02*
Y80870D01*
X77079Y79000D02*
X80819D01*
X72945Y76047D02*
X84953D01*
X72945Y81953D02*
X84953D01*
Y76047D02*
Y81953D01*
X72945Y76047D02*
Y81953D01*
X61500Y70827D02*
Y74173D01*
X59827Y72500D02*
X63173D01*
X55496Y75256D02*
X67504D01*
X55496Y69744D02*
X67504D01*
X55496D02*
Y75256D01*
X67504Y69744D02*
Y75256D01*
X61500Y94327D02*
Y97673D01*
X59827Y96000D02*
X63173D01*
X55496Y98756D02*
X67504D01*
X55496Y93244D02*
X67504D01*
X55496D02*
Y98756D01*
X67504Y93244D02*
Y98756D01*
X42756Y73000D02*
X46496D01*
X44626Y71130D02*
Y74870D01*
X47579Y66996D02*
Y79004D01*
X41673Y66996D02*
Y79004D01*
X47579D01*
X41673Y66996D02*
X47579D01*
X42756Y99000D02*
X46496D01*
X44626Y97130D02*
Y100870D01*
X41673Y92996D02*
Y105004D01*
X47579Y92996D02*
Y105004D01*
X41673Y92996D02*
X47579D01*
X41673Y105004D02*
X47579D01*
D44*
X90299Y67409D02*
Y79086D01*
X94327D01*
Y79947D01*
X102827D01*
Y79086D02*
Y79947D01*
Y79086D02*
X106855D01*
Y67409D02*
Y79086D01*
X102827Y67409D02*
X106855D01*
X102827Y66547D02*
Y67409D01*
X94327Y66547D02*
X102827D01*
X94327D02*
Y67409D01*
X90299D02*
X94327D01*
D76*
X151957Y95610D02*
Y109390D01*
X132602Y95610D02*
Y109390D01*
X151957D01*
X132602Y95610D02*
X151957D01*
X45980Y33835D02*
Y51157D01*
X67240D01*
Y33835D02*
Y51157D01*
X45980Y33835D02*
X67240D01*
X125606Y21991D02*
Y90888D01*
Y21991D02*
X225508D01*
Y90888D01*
X125606D02*
X225508D01*
X31969Y64921D02*
Y105079D01*
X-1221Y64921D02*
X31969D01*
X-1221D02*
Y105079D01*
X31969D01*
X37323Y79882D02*
Y88150D01*
Y79882D02*
X47677D01*
Y88150D01*
X37323D02*
X47677D01*
M02*
