G04 Layer_Physical_Order=4*
G04 Layer_Color=16711680*
%FSLAX25Y25*%
%MOIN*%
G70*
G01*
G75*
%ADD28C,0.00591*%
%ADD30C,0.01181*%
%ADD31R,0.05905X0.07874*%
%ADD32O,0.05905X0.07874*%
%ADD33C,0.01181*%
%ADD34R,0.10000X0.10000*%
%ADD35C,0.06000*%
%ADD36C,0.02559*%
%ADD37O,0.08268X0.04134*%
%ADD38O,0.07874X0.03937*%
%ADD39C,0.01772*%
D28*
X33500Y86000D02*
X36000Y83500D01*
Y81484D02*
Y83500D01*
X33000Y88500D02*
X36000D01*
X31500Y87000D02*
X33000Y88500D01*
X31500Y85500D02*
Y87000D01*
Y85500D02*
X33500Y83500D01*
X87500Y79000D02*
X150000D01*
X183185Y34685D02*
Y50815D01*
X147000Y87000D02*
X183185Y50815D01*
X87500Y87000D02*
X147000D01*
X142575Y8000D02*
X153575Y19000D01*
X175311D01*
D30*
X64000Y60500D02*
X73000Y69500D01*
X64000Y50705D02*
Y60500D01*
Y50705D02*
X65000Y49705D01*
Y33500D02*
Y49705D01*
X63500Y32000D02*
X65000Y33500D01*
X73000Y69500D02*
X86500D01*
X88000Y57000D02*
X90000Y55000D01*
X77000Y57000D02*
X88000D01*
X71000Y51000D02*
X77000Y57000D01*
X66500Y51000D02*
X71000D01*
X81449Y55000D02*
X83500Y52949D01*
Y31500D02*
Y52949D01*
X80500Y55000D02*
X81449D01*
X71000Y29000D02*
Y32000D01*
X69000Y27000D02*
X71000Y29000D01*
X62500Y27000D02*
X69000D01*
X47500Y42000D02*
X62500Y27000D01*
X47500Y42000D02*
Y49000D01*
X51000Y52500D01*
D31*
X172575Y8000D02*
D03*
D32*
X162575D02*
D03*
X152575D02*
D03*
X142575D02*
D03*
X132575D02*
D03*
X122575D02*
D03*
D33*
X51591Y42496D02*
D03*
X61630D02*
D03*
X54543Y45547D02*
D03*
Y39445D02*
D03*
Y42496D02*
D03*
X58677Y45547D02*
D03*
Y39445D02*
D03*
Y42496D02*
D03*
D34*
X10000Y59500D02*
D03*
Y19500D02*
D03*
D35*
X7874Y110236D02*
D03*
Y7874D02*
D03*
X188976D02*
D03*
Y110236D02*
D03*
D36*
X24488Y96378D02*
D03*
Y73622D02*
D03*
D37*
X26457Y67992D02*
D03*
Y102008D02*
D03*
D38*
X10000Y67992D02*
D03*
Y102008D02*
D03*
D39*
X36000Y81484D02*
D03*
X33500Y86000D02*
D03*
X36000Y88500D02*
D03*
X33500Y83500D02*
D03*
X49000Y79500D02*
D03*
X51500Y91500D02*
D03*
X48500Y89000D02*
D03*
X108000Y57000D02*
D03*
X131000Y106000D02*
D03*
X126457Y103043D02*
D03*
X87500Y90500D02*
D03*
X95500Y37500D02*
D03*
X105500Y58500D02*
D03*
X150000Y79000D02*
D03*
X183185Y34685D02*
D03*
X86500Y69500D02*
D03*
X103000Y11000D02*
D03*
X90000D02*
D03*
X120500Y91500D02*
D03*
X120000Y66000D02*
D03*
X56500Y102500D02*
D03*
X63500Y32000D02*
D03*
X52500Y70000D02*
D03*
X58000Y91500D02*
D03*
X70500Y11000D02*
D03*
X90000Y55000D02*
D03*
X80500D02*
D03*
X71500Y74500D02*
D03*
X36051Y97598D02*
D03*
X36000Y94449D02*
D03*
X68000Y32000D02*
D03*
X83500Y31500D02*
D03*
X37000Y72402D02*
D03*
Y75500D02*
D03*
X142500Y102500D02*
D03*
X162051Y104000D02*
D03*
X184449D02*
D03*
X168717Y93000D02*
D03*
X120500Y52502D02*
D03*
X44500Y42500D02*
D03*
X124000Y26912D02*
D03*
X109500Y11000D02*
D03*
X194500Y18500D02*
D03*
X175311Y19000D02*
D03*
X87500Y95000D02*
D03*
Y87000D02*
D03*
Y79000D02*
D03*
X96500Y31500D02*
D03*
X66500Y51000D02*
D03*
X54500Y32000D02*
D03*
X71000D02*
D03*
X51000Y52500D02*
D03*
M02*
