G04 Layer_Color=65535*
%FSLAX25Y25*%
%MOIN*%
G70*
G01*
G75*
%ADD40C,0.00800*%
%ADD41C,0.00787*%
%ADD42C,0.00500*%
%ADD43C,0.00394*%
%ADD44C,0.00600*%
%ADD45C,0.01000*%
%ADD46C,0.00598*%
%ADD47C,0.00300*%
D40*
X59031Y85150D02*
X58686Y85985D01*
X57850Y86331D01*
X57015Y85985D01*
X56669Y85150D01*
X66512Y76488D02*
Y87512D01*
X55488Y76488D02*
X66512D01*
X55488D02*
Y87512D01*
X66512D01*
X56669Y85150D02*
X59031D01*
D41*
X45193Y39543D02*
X44405D01*
X45193D01*
X36201Y86968D02*
X35413D01*
X36201D01*
X52878Y98409D02*
Y99590D01*
X50122Y98409D02*
Y99590D01*
X117575Y3000D02*
Y13000D01*
X177575Y3000D02*
Y13000D01*
X117575Y3000D02*
X177575D01*
X117575Y13000D02*
X177575D01*
X119122Y98909D02*
Y100091D01*
X121878Y98909D02*
Y100091D01*
X113122Y72409D02*
Y73590D01*
X115878Y72409D02*
Y73590D01*
X90795Y83653D02*
Y90937D01*
X90205Y92610D02*
X115795D01*
Y106390D01*
X90205D02*
X115795D01*
X90205Y92610D02*
Y106390D01*
X101622Y22909D02*
Y24091D01*
X104378Y22909D02*
Y24091D01*
X95122Y22909D02*
Y24091D01*
X97878Y22909D02*
Y24091D01*
X88622Y22909D02*
Y24091D01*
X91378Y22909D02*
Y24091D01*
X82122Y22953D02*
Y24134D01*
X84878Y22953D02*
Y24134D01*
X75622Y22953D02*
Y24134D01*
X78378Y22953D02*
Y24134D01*
X69122Y22909D02*
Y24091D01*
X71878Y22909D02*
Y24091D01*
X56122Y58909D02*
Y60091D01*
X58878Y58909D02*
Y60091D01*
X58878Y22909D02*
Y24091D01*
X56122Y22909D02*
Y24091D01*
X49622Y58909D02*
Y60091D01*
X52378Y58909D02*
Y60091D01*
Y22909D02*
Y24091D01*
X49622Y22909D02*
Y24091D01*
X62622Y58909D02*
Y60091D01*
X65378Y58909D02*
Y60091D01*
X65378Y22909D02*
Y24091D01*
X62622Y22909D02*
Y24091D01*
X35378Y52953D02*
Y54134D01*
X32622Y52953D02*
Y54134D01*
X27878Y52953D02*
Y54134D01*
X25122Y52953D02*
Y54134D01*
X29158Y28622D02*
X30339D01*
X29158Y31378D02*
X30339D01*
X29158Y35122D02*
X30339D01*
X29158Y37878D02*
X30339D01*
X29158Y41622D02*
X30339D01*
X29158Y44378D02*
X30339D01*
X60909Y73878D02*
X62090D01*
X60909Y71122D02*
X62090D01*
X60909Y97378D02*
X62090D01*
X60909Y94622D02*
X62090D01*
X15512Y66142D02*
X20433D01*
X15512Y103858D02*
X20433D01*
X-236Y66142D02*
X4803D01*
X-236D02*
Y103858D01*
X4803D01*
D42*
X195488Y92857D02*
X194996Y93709D01*
X194012D01*
X193520Y92857D01*
X194012Y92004D01*
X194996D01*
X195488Y92857D01*
X140114Y96595D02*
X144445D01*
X140114Y108405D02*
X144445D01*
X64878Y49386D02*
X65469D01*
Y46827D02*
Y49386D01*
Y35606D02*
Y38165D01*
X64878Y35606D02*
X65469D01*
X47752Y49386D02*
X48342D01*
X47752Y46827D02*
Y49386D01*
Y35606D02*
Y38165D01*
Y35606D02*
X48342D01*
X193972Y32817D02*
Y80061D01*
X134917Y32817D02*
X193972D01*
X134917D02*
Y80061D01*
X193972D01*
X194996Y87935D02*
X224524D01*
Y24943D02*
Y87935D01*
X194996Y24943D02*
X224524D01*
X130035Y87935D02*
X132004D01*
X130035Y80061D02*
Y87935D01*
Y24943D02*
X132004D01*
X130035D02*
Y32817D01*
X40138Y87835D02*
X44862D01*
X40138Y80197D02*
X44862D01*
D43*
X153532Y106405D02*
X157468D01*
X98583Y50551D02*
X102520D01*
D44*
X94827Y67047D02*
X102327D01*
X94827Y79447D02*
X102327D01*
X120633Y109166D02*
X120099Y109699D01*
X119033D01*
X118500Y109166D01*
Y107033D01*
X119033Y106500D01*
X120099D01*
X120633Y107033D01*
X121699Y106500D02*
X122765D01*
X122232D01*
Y109699D01*
X121699Y109166D01*
X51133Y108666D02*
X50599Y109199D01*
X49533D01*
X49000Y108666D01*
Y106533D01*
X49533Y106000D01*
X50599D01*
X51133Y106533D01*
X54332Y106000D02*
X52199D01*
X54332Y108133D01*
Y108666D01*
X53799Y109199D01*
X52732D01*
X52199Y108666D01*
X120666Y73867D02*
X121199Y74401D01*
Y75467D01*
X120666Y76000D01*
X118533D01*
X118000Y75467D01*
Y74401D01*
X118533Y73867D01*
X120666Y72801D02*
X121199Y72268D01*
Y71201D01*
X120666Y70668D01*
X120133D01*
X119599Y71201D01*
Y71735D01*
Y71201D01*
X119066Y70668D01*
X118533D01*
X118000Y71201D01*
Y72268D01*
X118533Y72801D01*
X38924Y43166D02*
X38391Y43699D01*
X37325D01*
X36791Y43166D01*
Y41033D01*
X37325Y40500D01*
X38391D01*
X38924Y41033D01*
X41590Y40500D02*
Y43699D01*
X39990Y42099D01*
X42123D01*
X38881Y36666D02*
X38348Y37199D01*
X37281D01*
X36748Y36666D01*
Y34533D01*
X37281Y34000D01*
X38348D01*
X38881Y34533D01*
X42080Y37199D02*
X39947D01*
Y35599D01*
X41013Y36133D01*
X41546D01*
X42080Y35599D01*
Y34533D01*
X41546Y34000D01*
X40480D01*
X39947Y34533D01*
X70133Y16166D02*
X69599Y16699D01*
X68533D01*
X68000Y16166D01*
Y14033D01*
X68533Y13500D01*
X69599D01*
X70133Y14033D01*
X73332Y16699D02*
X72265Y16166D01*
X71199Y15100D01*
Y14033D01*
X71732Y13500D01*
X72799D01*
X73332Y14033D01*
Y14566D01*
X72799Y15100D01*
X71199D01*
X95633Y15666D02*
X95100Y16199D01*
X94033D01*
X93500Y15666D01*
Y13533D01*
X94033Y13000D01*
X95100D01*
X95633Y13533D01*
X96699Y16199D02*
X98832D01*
Y15666D01*
X96699Y13533D01*
Y13000D01*
X102133Y33166D02*
X101600Y33699D01*
X100533D01*
X100000Y33166D01*
Y31033D01*
X100533Y30500D01*
X101600D01*
X102133Y31033D01*
X103199Y33166D02*
X103732Y33699D01*
X104798D01*
X105332Y33166D01*
Y32633D01*
X104798Y32100D01*
X105332Y31566D01*
Y31033D01*
X104798Y30500D01*
X103732D01*
X103199Y31033D01*
Y31566D01*
X103732Y32100D01*
X103199Y32633D01*
Y33166D01*
X103732Y32100D02*
X104798D01*
X38881Y30666D02*
X38348Y31199D01*
X37281D01*
X36748Y30666D01*
Y28533D01*
X37281Y28000D01*
X38348D01*
X38881Y28533D01*
X39947D02*
X40480Y28000D01*
X41546D01*
X42080Y28533D01*
Y30666D01*
X41546Y31199D01*
X40480D01*
X39947Y30666D01*
Y30133D01*
X40480Y29599D01*
X42080D01*
X23633Y63209D02*
X23099Y63742D01*
X22033D01*
X21500Y63209D01*
Y61076D01*
X22033Y60543D01*
X23099D01*
X23633Y61076D01*
X24699Y60543D02*
X25765D01*
X25232D01*
Y63742D01*
X24699Y63209D01*
X27365D02*
X27898Y63742D01*
X28964D01*
X29497Y63209D01*
Y61076D01*
X28964Y60543D01*
X27898D01*
X27365Y61076D01*
Y63209D01*
X33633D02*
X33099Y63742D01*
X32033D01*
X31500Y63209D01*
Y61076D01*
X32033Y60543D01*
X33099D01*
X33633Y61076D01*
X34699Y60543D02*
X35765D01*
X35232D01*
Y63742D01*
X34699Y63209D01*
X37365Y60543D02*
X38431D01*
X37898D01*
Y63742D01*
X37365Y63209D01*
X75133Y33166D02*
X74599Y33699D01*
X73533D01*
X73000Y33166D01*
Y31033D01*
X73533Y30500D01*
X74599D01*
X75133Y31033D01*
X76199Y30500D02*
X77265D01*
X76732D01*
Y33699D01*
X76199Y33166D01*
X80997Y30500D02*
X78865D01*
X80997Y32633D01*
Y33166D01*
X80464Y33699D01*
X79398D01*
X78865Y33166D01*
X81133Y16166D02*
X80599Y16699D01*
X79533D01*
X79000Y16166D01*
Y14033D01*
X79533Y13500D01*
X80599D01*
X81133Y14033D01*
X82199Y13500D02*
X83265D01*
X82732D01*
Y16699D01*
X82199Y16166D01*
X84865D02*
X85398Y16699D01*
X86464D01*
X86997Y16166D01*
Y15633D01*
X86464Y15100D01*
X85931D01*
X86464D01*
X86997Y14566D01*
Y14033D01*
X86464Y13500D01*
X85398D01*
X84865Y14033D01*
X88133Y33166D02*
X87599Y33699D01*
X86533D01*
X86000Y33166D01*
Y31033D01*
X86533Y30500D01*
X87599D01*
X88133Y31033D01*
X89199Y30500D02*
X90265D01*
X89732D01*
Y33699D01*
X89199Y33166D01*
X93464Y30500D02*
Y33699D01*
X91865Y32100D01*
X93997D01*
X41133Y20666D02*
X40600Y21199D01*
X39533D01*
X39000Y20666D01*
Y18533D01*
X39533Y18000D01*
X40600D01*
X41133Y18533D01*
X42199Y18000D02*
X43265D01*
X42732D01*
Y21199D01*
X42199Y20666D01*
X46997Y21199D02*
X44865D01*
Y19600D01*
X45931Y20133D01*
X46464D01*
X46997Y19600D01*
Y18533D01*
X46464Y18000D01*
X45398D01*
X44865Y18533D01*
X41633Y56666D02*
X41100Y57199D01*
X40033D01*
X39500Y56666D01*
Y54533D01*
X40033Y54000D01*
X41100D01*
X41633Y54533D01*
X42699Y54000D02*
X43765D01*
X43232D01*
Y57199D01*
X42699Y56666D01*
X47497Y57199D02*
X46431Y56666D01*
X45365Y55599D01*
Y54533D01*
X45898Y54000D01*
X46964D01*
X47497Y54533D01*
Y55066D01*
X46964Y55599D01*
X45365D01*
X55133Y16166D02*
X54599Y16699D01*
X53533D01*
X53000Y16166D01*
Y14033D01*
X53533Y13500D01*
X54599D01*
X55133Y14033D01*
X56199Y13500D02*
X57265D01*
X56732D01*
Y16699D01*
X56199Y16166D01*
X58865Y16699D02*
X60997D01*
Y16166D01*
X58865Y14033D01*
Y13500D01*
X52133Y68666D02*
X51600Y69199D01*
X50533D01*
X50000Y68666D01*
Y66533D01*
X50533Y66000D01*
X51600D01*
X52133Y66533D01*
X53199Y66000D02*
X54265D01*
X53732D01*
Y69199D01*
X53199Y68666D01*
X55865D02*
X56398Y69199D01*
X57464D01*
X57997Y68666D01*
Y68133D01*
X57464Y67599D01*
X57997Y67066D01*
Y66533D01*
X57464Y66000D01*
X56398D01*
X55865Y66533D01*
Y67066D01*
X56398Y67599D01*
X55865Y68133D01*
Y68666D01*
X56398Y67599D02*
X57464D01*
X60633Y32666D02*
X60100Y33199D01*
X59033D01*
X58500Y32666D01*
Y30533D01*
X59033Y30000D01*
X60100D01*
X60633Y30533D01*
X61699Y30000D02*
X62765D01*
X62232D01*
Y33199D01*
X61699Y32666D01*
X64365Y30533D02*
X64898Y30000D01*
X65964D01*
X66497Y30533D01*
Y32666D01*
X65964Y33199D01*
X64898D01*
X64365Y32666D01*
Y32133D01*
X64898Y31600D01*
X66497D01*
X61633Y68666D02*
X61099Y69199D01*
X60033D01*
X59500Y68666D01*
Y66533D01*
X60033Y66000D01*
X61099D01*
X61633Y66533D01*
X64832Y66000D02*
X62699D01*
X64832Y68133D01*
Y68666D01*
X64298Y69199D01*
X63232D01*
X62699Y68666D01*
X65898D02*
X66431Y69199D01*
X67497D01*
X68031Y68666D01*
Y66533D01*
X67497Y66000D01*
X66431D01*
X65898Y66533D01*
Y68666D01*
X145633Y113166D02*
X145099Y113699D01*
X144033D01*
X143500Y113166D01*
Y111033D01*
X144033Y110500D01*
X145099D01*
X145633Y111033D01*
X148832Y110500D02*
X146699D01*
X148832Y112633D01*
Y113166D01*
X148299Y113699D01*
X147232D01*
X146699Y113166D01*
X149898Y110500D02*
X150964D01*
X150431D01*
Y113699D01*
X149898Y113166D01*
X61133Y102166D02*
X60599Y102699D01*
X59533D01*
X59000Y102166D01*
Y100033D01*
X59533Y99500D01*
X60599D01*
X61133Y100033D01*
X64332Y99500D02*
X62199D01*
X64332Y101633D01*
Y102166D01*
X63798Y102699D01*
X62732D01*
X62199Y102166D01*
X67531Y99500D02*
X65398D01*
X67531Y101633D01*
Y102166D01*
X66997Y102699D01*
X65931D01*
X65398Y102166D01*
X70633Y72666D02*
X70100Y73199D01*
X69033D01*
X68500Y72666D01*
Y70533D01*
X69033Y70000D01*
X70100D01*
X70633Y70533D01*
X73832Y70000D02*
X71699D01*
X73832Y72133D01*
Y72666D01*
X73299Y73199D01*
X72232D01*
X71699Y72666D01*
X74898D02*
X75431Y73199D01*
X76497D01*
X77031Y72666D01*
Y72133D01*
X76497Y71600D01*
X75964D01*
X76497D01*
X77031Y71066D01*
Y70533D01*
X76497Y70000D01*
X75431D01*
X74898Y70533D01*
X6133Y40666D02*
X5599Y41199D01*
X4533D01*
X4000Y40666D01*
Y38533D01*
X4533Y38000D01*
X5599D01*
X6133Y38533D01*
X8798Y41199D02*
X7732D01*
X7199Y40666D01*
Y38533D01*
X7732Y38000D01*
X8798D01*
X9332Y38533D01*
Y40666D01*
X8798Y41199D01*
X10398D02*
X11464D01*
X10931D01*
Y38000D01*
X10398D01*
X11464D01*
X13064Y41199D02*
Y38000D01*
X15196D01*
X81000Y115699D02*
X82066D01*
X81533D01*
Y112500D01*
X81000D01*
X82066D01*
X85798Y115166D02*
X85265Y115699D01*
X84199D01*
X83666Y115166D01*
Y113033D01*
X84199Y112500D01*
X85265D01*
X85798Y113033D01*
X86865Y112500D02*
X87931D01*
X87398D01*
Y115699D01*
X86865Y115166D01*
X107199Y50000D02*
X104000D01*
Y47867D01*
X107199Y44668D02*
Y46801D01*
X104000D01*
Y44668D01*
X105599Y46801D02*
Y45735D01*
X107199Y43602D02*
X104000D01*
Y42003D01*
X104533Y41469D01*
X106666D01*
X107199Y42003D01*
Y43602D01*
X104000Y40403D02*
Y39337D01*
Y39870D01*
X107199D01*
X106666Y40403D01*
X145500Y94668D02*
Y91469D01*
X147633D01*
X150832Y94668D02*
X148699D01*
Y91469D01*
X150832D01*
X148699Y93068D02*
X149765D01*
X151898Y94668D02*
Y91469D01*
X153497D01*
X154031Y92002D01*
Y94134D01*
X153497Y94668D01*
X151898D01*
X157229Y91469D02*
X155097D01*
X157229Y93601D01*
Y94134D01*
X156696Y94668D01*
X155630D01*
X155097Y94134D01*
X111500Y3000D02*
Y6199D01*
X113100D01*
X113633Y5666D01*
Y4600D01*
X113100Y4066D01*
X111500D01*
X114699Y3000D02*
X115765D01*
X115232D01*
Y6199D01*
X114699Y5666D01*
X43000Y106000D02*
Y109199D01*
X44600D01*
X45133Y108666D01*
Y107599D01*
X44600Y107066D01*
X43000D01*
X44066D02*
X45133Y106000D01*
X46199D02*
X47265D01*
X46732D01*
Y109199D01*
X46199Y108666D01*
X48500Y71500D02*
Y74699D01*
X50099D01*
X50633Y74166D01*
Y73099D01*
X50099Y72566D01*
X48500D01*
X49566D02*
X50633Y71500D01*
X53832D02*
X51699D01*
X53832Y73633D01*
Y74166D01*
X53298Y74699D01*
X52232D01*
X51699Y74166D01*
X69500Y34500D02*
Y37699D01*
X71100D01*
X71633Y37166D01*
Y36099D01*
X71100Y35566D01*
X69500D01*
X70566D02*
X71633Y34500D01*
X72699Y37166D02*
X73232Y37699D01*
X74299D01*
X74832Y37166D01*
Y36633D01*
X74299Y36099D01*
X73765D01*
X74299D01*
X74832Y35566D01*
Y35033D01*
X74299Y34500D01*
X73232D01*
X72699Y35033D01*
X76500Y34500D02*
Y37699D01*
X78100D01*
X78633Y37166D01*
Y36099D01*
X78100Y35566D01*
X76500D01*
X77566D02*
X78633Y34500D01*
X81299D02*
Y37699D01*
X79699Y36099D01*
X81832D01*
X104500Y52000D02*
Y55199D01*
X106099D01*
X106633Y54666D01*
Y53600D01*
X106099Y53066D01*
X104500D01*
X105566D02*
X106633Y52000D01*
X109832Y55199D02*
X107699D01*
Y53600D01*
X108765Y54133D01*
X109299D01*
X109832Y53600D01*
Y52533D01*
X109299Y52000D01*
X108232D01*
X107699Y52533D01*
X69697Y64500D02*
Y67699D01*
X71296D01*
X71829Y67166D01*
Y66100D01*
X71296Y65566D01*
X69697D01*
X70763D02*
X71829Y64500D01*
X75028Y67699D02*
X73962Y67166D01*
X72896Y66100D01*
Y65033D01*
X73429Y64500D01*
X74495D01*
X75028Y65033D01*
Y65566D01*
X74495Y66100D01*
X72896D01*
X81000Y64500D02*
Y67699D01*
X82600D01*
X83133Y67166D01*
Y66100D01*
X82600Y65566D01*
X81000D01*
X82066D02*
X83133Y64500D01*
X84199Y67699D02*
X86332D01*
Y67166D01*
X84199Y65033D01*
Y64500D01*
X104500Y59000D02*
Y62199D01*
X106099D01*
X106633Y61666D01*
Y60599D01*
X106099Y60066D01*
X104500D01*
X105566D02*
X106633Y59000D01*
X107699Y61666D02*
X108232Y62199D01*
X109299D01*
X109832Y61666D01*
Y61133D01*
X109299Y60599D01*
X109832Y60066D01*
Y59533D01*
X109299Y59000D01*
X108232D01*
X107699Y59533D01*
Y60066D01*
X108232Y60599D01*
X107699Y61133D01*
Y61666D01*
X108232Y60599D02*
X109299D01*
X83500Y34500D02*
Y37699D01*
X85100D01*
X85633Y37166D01*
Y36099D01*
X85100Y35566D01*
X83500D01*
X84566D02*
X85633Y34500D01*
X86699Y35033D02*
X87232Y34500D01*
X88298D01*
X88832Y35033D01*
Y37166D01*
X88298Y37699D01*
X87232D01*
X86699Y37166D01*
Y36633D01*
X87232Y36099D01*
X88832D01*
X97500Y35000D02*
Y38199D01*
X99099D01*
X99633Y37666D01*
Y36599D01*
X99099Y36066D01*
X97500D01*
X98566D02*
X99633Y35000D01*
X100699D02*
X101765D01*
X101232D01*
Y38199D01*
X100699Y37666D01*
X103365D02*
X103898Y38199D01*
X104964D01*
X105497Y37666D01*
Y35533D01*
X104964Y35000D01*
X103898D01*
X103365Y35533D01*
Y37666D01*
X78500Y72000D02*
Y75199D01*
X80099D01*
X80633Y74666D01*
Y73599D01*
X80099Y73066D01*
X78500D01*
X79566D02*
X80633Y72000D01*
X81699D02*
X82765D01*
X82232D01*
Y75199D01*
X81699Y74666D01*
X86497Y72000D02*
X84365D01*
X86497Y74133D01*
Y74666D01*
X85964Y75199D01*
X84898D01*
X84365Y74666D01*
X76500Y91000D02*
Y94199D01*
X78100D01*
X78633Y93666D01*
Y92599D01*
X78100Y92066D01*
X76500D01*
X77566D02*
X78633Y91000D01*
X79699D02*
X80765D01*
X80232D01*
Y94199D01*
X79699Y93666D01*
X82365Y91000D02*
X83431D01*
X82898D01*
Y94199D01*
X82365Y93666D01*
X104500Y13000D02*
Y16199D01*
X106099D01*
X106633Y15666D01*
Y14600D01*
X106099Y14066D01*
X104500D01*
X105566D02*
X106633Y13000D01*
X107699D02*
X108765D01*
X108232D01*
Y16199D01*
X107699Y15666D01*
X110365D02*
X110898Y16199D01*
X111964D01*
X112497Y15666D01*
Y15133D01*
X111964Y14600D01*
X111431D01*
X111964D01*
X112497Y14066D01*
Y13533D01*
X111964Y13000D01*
X110898D01*
X110365Y13533D01*
X182000Y91500D02*
Y94699D01*
X183599D01*
X184133Y94166D01*
Y93099D01*
X183599Y92566D01*
X182000D01*
X183066D02*
X184133Y91500D01*
X185199D02*
X186265D01*
X185732D01*
Y94699D01*
X185199Y94166D01*
X189464Y91500D02*
Y94699D01*
X187865Y93099D01*
X189997D01*
X169500Y102500D02*
Y105699D01*
X171099D01*
X171633Y105166D01*
Y104100D01*
X171099Y103566D01*
X169500D01*
X170566D02*
X171633Y102500D01*
X172699D02*
X173765D01*
X173232D01*
Y105699D01*
X172699Y105166D01*
X177497Y105699D02*
X175365D01*
Y104100D01*
X176431Y104633D01*
X176964D01*
X177497Y104100D01*
Y103033D01*
X176964Y102500D01*
X175898D01*
X175365Y103033D01*
X172500Y14500D02*
Y17699D01*
X174100D01*
X174633Y17166D01*
Y16100D01*
X174100Y15566D01*
X172500D01*
X173566D02*
X174633Y14500D01*
X175699D02*
X176765D01*
X176232D01*
Y17699D01*
X175699Y17166D01*
X180497Y17699D02*
X179431Y17166D01*
X178365Y16100D01*
Y15033D01*
X178898Y14500D01*
X179964D01*
X180497Y15033D01*
Y15566D01*
X179964Y16100D01*
X178365D01*
X113500Y47500D02*
X116699D01*
Y45900D01*
X116166Y45367D01*
X115100D01*
X114566Y45900D01*
Y47500D01*
Y46434D02*
X113500Y45367D01*
Y44301D02*
Y43235D01*
Y43768D01*
X116699D01*
X116166Y44301D01*
X116699Y41635D02*
Y39503D01*
X116166D01*
X114033Y41635D01*
X113500D01*
X166000Y109500D02*
Y112699D01*
X167599D01*
X168133Y112166D01*
Y111100D01*
X167599Y110566D01*
X166000D01*
X167066D02*
X168133Y109500D01*
X169199D02*
X170265D01*
X169732D01*
Y112699D01*
X169199Y112166D01*
X171865D02*
X172398Y112699D01*
X173464D01*
X173997Y112166D01*
Y111633D01*
X173464Y111100D01*
X173997Y110566D01*
Y110033D01*
X173464Y109500D01*
X172398D01*
X171865Y110033D01*
Y110566D01*
X172398Y111100D01*
X171865Y111633D01*
Y112166D01*
X172398Y111100D02*
X173464D01*
X43000Y92215D02*
Y89549D01*
X43533Y89016D01*
X44600D01*
X45133Y89549D01*
Y92215D01*
X46199Y89016D02*
X47265D01*
X46732D01*
Y92215D01*
X46199Y91682D01*
X110000Y65699D02*
Y63033D01*
X110533Y62500D01*
X111600D01*
X112133Y63033D01*
Y65699D01*
X115332Y62500D02*
X113199D01*
X115332Y64633D01*
Y65166D01*
X114798Y65699D01*
X113732D01*
X113199Y65166D01*
X40000Y50699D02*
Y48033D01*
X40533Y47500D01*
X41600D01*
X42133Y48033D01*
Y50699D01*
X43199Y50166D02*
X43732Y50699D01*
X44798D01*
X45332Y50166D01*
Y49633D01*
X44798Y49099D01*
X44265D01*
X44798D01*
X45332Y48566D01*
Y48033D01*
X44798Y47500D01*
X43732D01*
X43199Y48033D01*
X128699Y87500D02*
X126033D01*
X125500Y86967D01*
Y85900D01*
X126033Y85367D01*
X128699D01*
X125500Y82701D02*
X128699D01*
X127100Y84301D01*
Y82168D01*
X23000Y109199D02*
Y106533D01*
X23533Y106000D01*
X24600D01*
X25133Y106533D01*
Y109199D01*
X28332Y108666D02*
X27799Y109199D01*
X26732D01*
X26199Y108666D01*
Y108133D01*
X26732Y107599D01*
X27799D01*
X28332Y107066D01*
Y106533D01*
X27799Y106000D01*
X26732D01*
X26199Y106533D01*
X29398Y109199D02*
Y106000D01*
X30997D01*
X31531Y106533D01*
Y107066D01*
X30997Y107599D01*
X29398D01*
X30997D01*
X31531Y108133D01*
Y108666D01*
X30997Y109199D01*
X29398D01*
D45*
X0Y65000D02*
X20000D01*
X0Y13500D02*
Y65000D01*
Y13500D02*
X20000D01*
Y65000D01*
D46*
X61000Y91700D02*
Y89033D01*
X61533Y88500D01*
X62600D01*
X63133Y89033D01*
Y91700D01*
X66333D02*
X64200D01*
Y90100D01*
X65266Y90633D01*
X65800D01*
X66333Y90100D01*
Y89033D01*
X65800Y88500D01*
X64733D01*
X64200Y89033D01*
X135150Y111100D02*
X137283D01*
X136216Y112167D02*
Y110033D01*
D47*
X91063Y82850D02*
X94395Y79517D01*
X91063D02*
X94395Y82850D01*
X91063Y81183D02*
X94395D01*
X92729Y79517D02*
Y82850D01*
M02*
