G04 Layer_Color=16711935*
%FSLAX25Y25*%
%MOIN*%
G70*
G01*
G75*
%ADD65R,0.06496X0.08465*%
%ADD66O,0.06496X0.08465*%
%ADD67C,0.01772*%
%ADD68R,0.10591X0.10591*%
%ADD69C,0.06591*%
%ADD70C,0.03150*%
%ADD71O,0.08858X0.04724*%
%ADD72O,0.08465X0.04528*%
%ADD73C,0.02362*%
D65*
X172575Y8000D02*
D03*
D66*
X162575D02*
D03*
X152575D02*
D03*
X142575D02*
D03*
X132575D02*
D03*
X122575D02*
D03*
D67*
X51591Y42496D02*
D03*
X61630D02*
D03*
X54543Y45547D02*
D03*
Y39445D02*
D03*
Y42496D02*
D03*
X58677Y45547D02*
D03*
Y39445D02*
D03*
Y42496D02*
D03*
D68*
X10000Y59500D02*
D03*
Y19500D02*
D03*
D69*
X7874Y110236D02*
D03*
Y7874D02*
D03*
X188976D02*
D03*
Y110236D02*
D03*
D70*
X24488Y96378D02*
D03*
Y73622D02*
D03*
D71*
X26457Y67992D02*
D03*
Y102008D02*
D03*
D72*
X10000Y67992D02*
D03*
Y102008D02*
D03*
D73*
X36000Y81484D02*
D03*
X33500Y86000D02*
D03*
X36000Y88500D02*
D03*
X33500Y83500D02*
D03*
X49000Y79500D02*
D03*
X51500Y91500D02*
D03*
X48500Y89000D02*
D03*
X108000Y57000D02*
D03*
X131000Y106000D02*
D03*
X126457Y103043D02*
D03*
X87500Y90500D02*
D03*
X95500Y37500D02*
D03*
X105500Y58500D02*
D03*
X150000Y79000D02*
D03*
X183185Y34685D02*
D03*
X86500Y69500D02*
D03*
X103000Y11000D02*
D03*
X90000D02*
D03*
X120500Y91500D02*
D03*
X120000Y66000D02*
D03*
X56500Y102500D02*
D03*
X63500Y32000D02*
D03*
X52500Y70000D02*
D03*
X58000Y91500D02*
D03*
X70500Y11000D02*
D03*
X90000Y55000D02*
D03*
X80500D02*
D03*
X71500Y74500D02*
D03*
X36051Y97598D02*
D03*
X36000Y94449D02*
D03*
X68000Y32000D02*
D03*
X83500Y31500D02*
D03*
X37000Y72402D02*
D03*
Y75500D02*
D03*
X142500Y102500D02*
D03*
X162051Y104000D02*
D03*
X184449D02*
D03*
X168717Y93000D02*
D03*
X120500Y52502D02*
D03*
X44500Y42500D02*
D03*
X124000Y26912D02*
D03*
X109500Y11000D02*
D03*
X194500Y18500D02*
D03*
X175311Y19000D02*
D03*
X87500Y95000D02*
D03*
Y87000D02*
D03*
Y79000D02*
D03*
X96500Y31500D02*
D03*
X66500Y51000D02*
D03*
X54500Y32000D02*
D03*
X71000D02*
D03*
X51000Y52500D02*
D03*
M02*
