G04 Layer_Physical_Order=1*
G04 Layer_Color=255*
%FSLAX25Y25*%
%MOIN*%
G70*
G01*
G75*
%ADD10R,0.03937X0.00984*%
%ADD11R,0.03937X0.03740*%
%ADD12R,0.03543X0.02756*%
%ADD13R,0.03740X0.03937*%
%ADD14R,0.03740X0.03740*%
%ADD15R,0.05276X0.11890*%
%ADD16R,0.12598X0.07283*%
%ADD17R,0.03543X0.07283*%
%ADD18R,0.04028X0.02197*%
G04:AMPARAMS|DCode=19|XSize=80.71mil|YSize=120.08mil|CornerRadius=2.02mil|HoleSize=0mil|Usage=FLASHONLY|Rotation=90.000|XOffset=0mil|YOffset=0mil|HoleType=Round|Shape=RoundedRectangle|*
%AMROUNDEDRECTD19*
21,1,0.08071,0.11604,0,0,90.0*
21,1,0.07667,0.12008,0,0,90.0*
1,1,0.00404,0.05802,0.03834*
1,1,0.00404,0.05802,-0.03834*
1,1,0.00404,-0.05802,-0.03834*
1,1,0.00404,-0.05802,0.03834*
%
%ADD19ROUNDEDRECTD19*%
G04:AMPARAMS|DCode=20|XSize=23.62mil|YSize=9.45mil|CornerRadius=1.98mil|HoleSize=0mil|Usage=FLASHONLY|Rotation=90.000|XOffset=0mil|YOffset=0mil|HoleType=Round|Shape=RoundedRectangle|*
%AMROUNDEDRECTD20*
21,1,0.02362,0.00548,0,0,90.0*
21,1,0.01965,0.00945,0,0,90.0*
1,1,0.00397,0.00274,0.00983*
1,1,0.00397,0.00274,-0.00983*
1,1,0.00397,-0.00274,-0.00983*
1,1,0.00397,-0.00274,0.00983*
%
%ADD20ROUNDEDRECTD20*%
G04:AMPARAMS|DCode=21|XSize=9.45mil|YSize=23.62mil|CornerRadius=1.98mil|HoleSize=0mil|Usage=FLASHONLY|Rotation=90.000|XOffset=0mil|YOffset=0mil|HoleType=Round|Shape=RoundedRectangle|*
%AMROUNDEDRECTD21*
21,1,0.00945,0.01965,0,0,90.0*
21,1,0.00548,0.02362,0,0,90.0*
1,1,0.00397,0.00983,0.00274*
1,1,0.00397,0.00983,-0.00274*
1,1,0.00397,-0.00983,-0.00274*
1,1,0.00397,-0.00983,0.00274*
%
%ADD21ROUNDEDRECTD21*%
%ADD22R,0.02756X0.03543*%
%ADD23R,0.04724X0.07874*%
%ADD24R,0.06693X0.04331*%
%ADD25R,0.04528X0.01181*%
%ADD26R,0.04528X0.02362*%
G04:AMPARAMS|DCode=27|XSize=25.98mil|YSize=11.81mil|CornerRadius=1.48mil|HoleSize=0mil|Usage=FLASHONLY|Rotation=0.000|XOffset=0mil|YOffset=0mil|HoleType=Round|Shape=RoundedRectangle|*
%AMROUNDEDRECTD27*
21,1,0.02598,0.00886,0,0,0.0*
21,1,0.02303,0.01181,0,0,0.0*
1,1,0.00295,0.01152,-0.00443*
1,1,0.00295,-0.01152,-0.00443*
1,1,0.00295,-0.01152,0.00443*
1,1,0.00295,0.01152,0.00443*
%
%ADD27ROUNDEDRECTD27*%
%ADD28C,0.00591*%
%ADD29C,0.00400*%
%ADD30C,0.01181*%
%ADD31R,0.05905X0.07874*%
%ADD32O,0.05905X0.07874*%
%ADD33C,0.01181*%
%ADD34R,0.10000X0.10000*%
%ADD35C,0.06000*%
%ADD36C,0.02559*%
%ADD37O,0.08268X0.04134*%
%ADD38O,0.07874X0.03937*%
%ADD39C,0.01772*%
G36*
X62428Y46531D02*
X62438Y46530D01*
X62448Y46529D01*
X62458Y46527D01*
X62468Y46525D01*
X62478Y46522D01*
X62488Y46518D01*
X62497Y46514D01*
X62507Y46510D01*
X62516Y46505D01*
X62524Y46500D01*
X62533Y46494D01*
X62541Y46488D01*
X62549Y46481D01*
X62556Y46474D01*
X62564Y46466D01*
X62570Y46459D01*
X62577Y46450D01*
X62582Y46442D01*
X62588Y46433D01*
X62593Y46424D01*
X62597Y46415D01*
X62601Y46405D01*
X62604Y46395D01*
X62608Y46386D01*
X62610Y46376D01*
X62612Y46365D01*
X62613Y46355D01*
X62614Y46345D01*
X62614Y46335D01*
Y43972D01*
X66059D01*
X66069Y43972D01*
X66080Y43971D01*
X66090Y43970D01*
X66100Y43968D01*
X66110Y43966D01*
X66120Y43963D01*
X66130Y43959D01*
X66139Y43955D01*
X66148Y43951D01*
X66158Y43946D01*
X66166Y43941D01*
X66175Y43935D01*
X66183Y43929D01*
X66191Y43922D01*
X66198Y43915D01*
X66205Y43907D01*
X66212Y43900D01*
X66218Y43891D01*
X66224Y43883D01*
X66229Y43874D01*
X66234Y43865D01*
X66239Y43856D01*
X66243Y43846D01*
X66246Y43836D01*
X66249Y43826D01*
X66252Y43817D01*
X66254Y43806D01*
X66255Y43796D01*
X66256Y43786D01*
X66256Y43776D01*
Y43382D01*
X66256Y43372D01*
X66255Y43361D01*
X66254Y43351D01*
X66252Y43341D01*
X66249Y43331D01*
X66246Y43321D01*
X66243Y43311D01*
X66239Y43302D01*
X66234Y43292D01*
X66229Y43284D01*
X66224Y43275D01*
X66218Y43266D01*
X66212Y43258D01*
X66205Y43250D01*
X66198Y43243D01*
X66191Y43236D01*
X66183Y43229D01*
X66175Y43223D01*
X66166Y43217D01*
X66158Y43211D01*
X66148Y43207D01*
X66139Y43202D01*
X66130Y43198D01*
X66120Y43195D01*
X66110Y43192D01*
X66100Y43189D01*
X66090Y43187D01*
X66080Y43186D01*
X66069Y43185D01*
X66059Y43185D01*
X64189D01*
Y41807D01*
X66059D01*
X66069Y41807D01*
X66080Y41806D01*
X66090Y41805D01*
X66100Y41803D01*
X66110Y41800D01*
X66120Y41797D01*
X66130Y41794D01*
X66139Y41790D01*
X66148Y41786D01*
X66158Y41781D01*
X66166Y41775D01*
X66175Y41769D01*
X66183Y41763D01*
X66191Y41756D01*
X66198Y41749D01*
X66205Y41742D01*
X66212Y41734D01*
X66218Y41726D01*
X66224Y41717D01*
X66229Y41709D01*
X66234Y41700D01*
X66239Y41690D01*
X66243Y41681D01*
X66246Y41671D01*
X66249Y41661D01*
X66252Y41651D01*
X66254Y41641D01*
X66255Y41631D01*
X66256Y41620D01*
X66256Y41610D01*
Y41216D01*
X66256Y41206D01*
X66255Y41196D01*
X66254Y41186D01*
X66252Y41176D01*
X66249Y41166D01*
X66246Y41156D01*
X66243Y41146D01*
X66239Y41137D01*
X66234Y41127D01*
X66229Y41118D01*
X66224Y41109D01*
X66218Y41101D01*
X66212Y41093D01*
X66205Y41085D01*
X66198Y41077D01*
X66191Y41070D01*
X66183Y41063D01*
X66175Y41057D01*
X66166Y41051D01*
X66158Y41046D01*
X66148Y41041D01*
X66139Y41037D01*
X66130Y41033D01*
X66120Y41029D01*
X66110Y41026D01*
X66100Y41024D01*
X66090Y41022D01*
X66080Y41021D01*
X66069Y41020D01*
X66059Y41020D01*
X62614D01*
Y38658D01*
X62614Y38647D01*
X62613Y38637D01*
X62612Y38627D01*
X62610Y38617D01*
X62608Y38607D01*
X62604Y38597D01*
X62601Y38587D01*
X62597Y38577D01*
X62593Y38568D01*
X62588Y38559D01*
X62582Y38550D01*
X62577Y38542D01*
X62570Y38534D01*
X62564Y38526D01*
X62556Y38518D01*
X62549Y38511D01*
X62541Y38504D01*
X62533Y38498D01*
X62524Y38492D01*
X62516Y38487D01*
X62507Y38482D01*
X62497Y38478D01*
X62488Y38474D01*
X62478Y38470D01*
X62468Y38467D01*
X62458Y38465D01*
X62448Y38463D01*
X62438Y38462D01*
X62428Y38461D01*
X62417Y38461D01*
X50803D01*
X50793Y38461D01*
X50783Y38462D01*
X50772Y38463D01*
X50762Y38465D01*
X50752Y38467D01*
X50742Y38470D01*
X50733Y38474D01*
X50723Y38478D01*
X50714Y38482D01*
X50705Y38487D01*
X50696Y38492D01*
X50687Y38498D01*
X50679Y38504D01*
X50671Y38511D01*
X50664Y38518D01*
X50657Y38526D01*
X50650Y38534D01*
X50644Y38542D01*
X50638Y38550D01*
X50633Y38559D01*
X50628Y38568D01*
X50623Y38577D01*
X50619Y38587D01*
X50616Y38597D01*
X50613Y38607D01*
X50611Y38617D01*
X50609Y38627D01*
X50607Y38637D01*
X50607Y38647D01*
X50606Y38658D01*
Y41020D01*
X47161D01*
X47151Y41020D01*
X47141Y41021D01*
X47131Y41022D01*
X47120Y41024D01*
X47111Y41026D01*
X47101Y41029D01*
X47091Y41033D01*
X47081Y41037D01*
X47072Y41041D01*
X47063Y41046D01*
X47054Y41051D01*
X47046Y41057D01*
X47038Y41063D01*
X47030Y41070D01*
X47022Y41077D01*
X47015Y41085D01*
X47008Y41093D01*
X47002Y41101D01*
X46996Y41109D01*
X46991Y41118D01*
X46986Y41127D01*
X46982Y41137D01*
X46978Y41146D01*
X46974Y41156D01*
X46971Y41166D01*
X46969Y41176D01*
X46967Y41186D01*
X46966Y41196D01*
X46965Y41206D01*
X46965Y41216D01*
Y41610D01*
X46965Y41620D01*
X46966Y41631D01*
X46967Y41641D01*
X46969Y41651D01*
X46971Y41661D01*
X46974Y41671D01*
X46978Y41681D01*
X46982Y41690D01*
X46986Y41700D01*
X46991Y41709D01*
X46996Y41717D01*
X47002Y41726D01*
X47008Y41734D01*
X47015Y41742D01*
X47022Y41749D01*
X47030Y41756D01*
X47038Y41763D01*
X47046Y41769D01*
X47054Y41775D01*
X47063Y41781D01*
X47072Y41786D01*
X47081Y41790D01*
X47091Y41794D01*
X47101Y41797D01*
X47111Y41800D01*
X47120Y41803D01*
X47131Y41805D01*
X47141Y41806D01*
X47151Y41807D01*
X47161Y41807D01*
X49031D01*
Y43185D01*
X47161D01*
X47151Y43185D01*
X47141Y43186D01*
X47131Y43187D01*
X47120Y43189D01*
X47111Y43192D01*
X47101Y43195D01*
X47091Y43198D01*
X47081Y43202D01*
X47072Y43207D01*
X47063Y43211D01*
X47054Y43217D01*
X47046Y43223D01*
X47038Y43229D01*
X47030Y43236D01*
X47022Y43243D01*
X47015Y43250D01*
X47008Y43258D01*
X47002Y43266D01*
X46996Y43275D01*
X46991Y43284D01*
X46986Y43292D01*
X46982Y43302D01*
X46978Y43311D01*
X46974Y43321D01*
X46971Y43331D01*
X46969Y43341D01*
X46967Y43351D01*
X46966Y43361D01*
X46965Y43372D01*
X46965Y43382D01*
Y43776D01*
X46965Y43786D01*
X46966Y43796D01*
X46967Y43806D01*
X46969Y43817D01*
X46971Y43826D01*
X46974Y43836D01*
X46978Y43846D01*
X46982Y43856D01*
X46986Y43865D01*
X46991Y43874D01*
X46996Y43883D01*
X47002Y43891D01*
X47008Y43900D01*
X47015Y43907D01*
X47022Y43915D01*
X47030Y43922D01*
X47038Y43929D01*
X47046Y43935D01*
X47054Y43941D01*
X47063Y43946D01*
X47072Y43951D01*
X47081Y43955D01*
X47091Y43959D01*
X47101Y43963D01*
X47111Y43966D01*
X47120Y43968D01*
X47131Y43970D01*
X47141Y43971D01*
X47151Y43972D01*
X47161Y43972D01*
X50606D01*
Y46335D01*
X50607Y46345D01*
X50607Y46355D01*
X50609Y46365D01*
X50611Y46376D01*
X50613Y46386D01*
X50616Y46395D01*
X50619Y46405D01*
X50623Y46415D01*
X50628Y46424D01*
X50633Y46433D01*
X50638Y46442D01*
X50644Y46450D01*
X50650Y46459D01*
X50657Y46466D01*
X50664Y46474D01*
X50671Y46481D01*
X50679Y46488D01*
X50687Y46494D01*
X50696Y46500D01*
X50705Y46505D01*
X50714Y46510D01*
X50723Y46514D01*
X50733Y46518D01*
X50742Y46522D01*
X50752Y46525D01*
X50762Y46527D01*
X50772Y46529D01*
X50783Y46530D01*
X50793Y46531D01*
X50803Y46532D01*
X62417D01*
X62428Y46531D01*
D02*
G37*
D10*
X52681Y85937D02*
D03*
Y83969D02*
D03*
Y82000D02*
D03*
Y80032D02*
D03*
Y78063D02*
D03*
X69319D02*
D03*
Y80032D02*
D03*
Y82000D02*
D03*
Y83969D02*
D03*
Y85937D02*
D03*
D11*
X120500Y46551D02*
D03*
Y40449D02*
D03*
X109500Y26551D02*
D03*
Y20449D02*
D03*
X85500Y54949D02*
D03*
Y61051D02*
D03*
X72197D02*
D03*
Y54949D02*
D03*
X94500Y48051D02*
D03*
Y41949D02*
D03*
X87000Y48051D02*
D03*
Y41949D02*
D03*
X79500D02*
D03*
Y48051D02*
D03*
X72197Y41949D02*
D03*
Y48051D02*
D03*
X44626Y76051D02*
D03*
Y69949D02*
D03*
X44626Y95949D02*
D03*
Y102051D02*
D03*
D12*
X51500Y102543D02*
D03*
Y95457D02*
D03*
X120500Y95957D02*
D03*
Y103043D02*
D03*
X114500Y69457D02*
D03*
Y76543D02*
D03*
X103000Y19957D02*
D03*
Y27043D02*
D03*
X96500Y19957D02*
D03*
Y27043D02*
D03*
X90000Y19957D02*
D03*
Y27043D02*
D03*
X83500Y20000D02*
D03*
Y27087D02*
D03*
X77000Y20000D02*
D03*
Y27087D02*
D03*
X70500Y19957D02*
D03*
Y27043D02*
D03*
X57500Y55957D02*
D03*
Y63043D02*
D03*
Y27043D02*
D03*
Y19957D02*
D03*
X51000Y55957D02*
D03*
Y63043D02*
D03*
X51000Y27043D02*
D03*
Y19957D02*
D03*
X64000Y55957D02*
D03*
Y63043D02*
D03*
Y27043D02*
D03*
Y19957D02*
D03*
X34000Y57087D02*
D03*
Y50000D02*
D03*
X26500Y57087D02*
D03*
Y50000D02*
D03*
D13*
X162051Y110000D02*
D03*
X155949D02*
D03*
X190551Y18500D02*
D03*
X184449D02*
D03*
X168717Y98500D02*
D03*
X174819D02*
D03*
X184449D02*
D03*
X190551D02*
D03*
X94449Y61000D02*
D03*
X100551D02*
D03*
Y55000D02*
D03*
X94449D02*
D03*
X82000Y87000D02*
D03*
X75898D02*
D03*
X82000Y79000D02*
D03*
X75898D02*
D03*
D14*
X155500Y103354D02*
D03*
Y97646D02*
D03*
X100551Y47500D02*
D03*
Y41791D02*
D03*
D15*
X148343Y102500D02*
D03*
X136216D02*
D03*
D16*
X103000Y111705D02*
D03*
D17*
X112055Y87295D02*
D03*
X103000D02*
D03*
X93945D02*
D03*
D18*
X93313Y76987D02*
D03*
Y73247D02*
D03*
Y69507D02*
D03*
X103841D02*
D03*
Y73247D02*
D03*
Y76987D02*
D03*
D19*
X56610Y42496D02*
D03*
D20*
X49720Y48992D02*
D03*
X51689D02*
D03*
X53658D02*
D03*
X63500D02*
D03*
X61532D02*
D03*
X59563D02*
D03*
X57595D02*
D03*
X55626D02*
D03*
X49720Y36000D02*
D03*
X51689D02*
D03*
X53658D02*
D03*
X63500D02*
D03*
X61532D02*
D03*
X59563D02*
D03*
X57595D02*
D03*
X55626D02*
D03*
D21*
X65075Y45449D02*
D03*
Y39543D02*
D03*
X48146Y45449D02*
D03*
Y39543D02*
D03*
D22*
X33291Y30000D02*
D03*
X26205D02*
D03*
X33291Y36500D02*
D03*
X26205D02*
D03*
X33291Y43000D02*
D03*
X26205D02*
D03*
X57957Y72500D02*
D03*
X65043D02*
D03*
X57957Y96000D02*
D03*
X65043D02*
D03*
D23*
X191059Y85967D02*
D03*
X183185D02*
D03*
X175311D02*
D03*
X167437D02*
D03*
X159563D02*
D03*
X151689D02*
D03*
X143815D02*
D03*
X135941D02*
D03*
Y26912D02*
D03*
X143815D02*
D03*
X151689D02*
D03*
X159563D02*
D03*
X167437D02*
D03*
X175311D02*
D03*
X183185D02*
D03*
X191059D02*
D03*
D24*
X130035Y76124D02*
D03*
Y68250D02*
D03*
Y60376D02*
D03*
Y52502D02*
D03*
Y44628D02*
D03*
Y36754D02*
D03*
D25*
X28721Y91890D02*
D03*
Y89921D02*
D03*
Y87953D02*
D03*
Y78110D02*
D03*
Y80079D02*
D03*
Y82047D02*
D03*
Y85984D02*
D03*
Y84016D02*
D03*
D26*
Y75551D02*
D03*
Y94449D02*
D03*
Y72402D02*
D03*
Y97598D02*
D03*
D27*
X45394Y85984D02*
D03*
Y82047D02*
D03*
X39606D02*
D03*
Y84016D02*
D03*
Y85984D02*
D03*
D28*
X35949Y94449D02*
X36000Y94500D01*
X69319Y85937D02*
Y86531D01*
X33516Y85984D02*
X39606D01*
X33500Y86000D02*
X33516Y85984D01*
X31184D02*
X31200Y86000D01*
X33500D01*
X28721Y85984D02*
X31184D01*
X35453Y87953D02*
X36000Y88500D01*
X33500Y83500D02*
X34016Y84016D01*
X39606D01*
X28721Y87953D02*
X35453D01*
X28721Y84016D02*
X32984D01*
X33500Y83500D01*
X50000Y82000D02*
X52681D01*
X69319Y83969D02*
X72866D01*
X75898Y87000D01*
X69319Y82000D02*
X72898D01*
X49000Y81000D02*
X50000Y82000D01*
X42154Y79500D02*
X49000D01*
Y81000D01*
X36051Y97598D02*
X40504Y102051D01*
X51500Y102543D02*
X56457D01*
X109500Y11000D02*
Y20449D01*
X94500Y41949D02*
X96000Y40449D01*
X48146Y39543D02*
X48638D01*
X120500Y40449D02*
X146551D01*
X136903Y20000D02*
X143815Y26912D01*
X65043Y90807D02*
X69319Y86531D01*
X65043Y90807D02*
Y96000D01*
X100551Y47500D02*
Y55000D01*
X143815Y85967D02*
X155494Y97646D01*
X38858Y90181D02*
X44626Y95949D01*
X190551Y86475D02*
X191059Y85967D01*
X190551Y86475D02*
Y98500D01*
X174819Y86459D02*
X175311Y85967D01*
X174819Y86459D02*
Y98500D01*
X120500Y46551D02*
Y52502D01*
X168717Y93000D02*
Y98500D01*
X184449D02*
Y104000D01*
X155500Y103354D02*
Y109551D01*
X155949Y110000D01*
X42567Y78110D02*
X44626Y76051D01*
X183185Y26912D02*
Y34685D01*
X191059Y26912D02*
Y37941D01*
X47449Y45449D02*
X48146D01*
X47457Y39543D02*
X48146D01*
X40504Y102051D02*
X44626D01*
X57957Y91543D02*
Y96000D01*
X109008Y19957D02*
X109500Y20449D01*
X162051Y104000D02*
Y110000D01*
X51500Y92090D02*
Y95457D01*
X69457Y27043D02*
X70500D01*
X175311Y19000D02*
Y26912D01*
X167437Y22862D02*
Y26912D01*
X72898Y82000D02*
X75898Y79000D01*
X180500Y18500D02*
X184449D01*
X151689Y26912D02*
Y35311D01*
X48409Y89000D02*
X48500D01*
X45394Y85984D02*
X48409Y89000D01*
X120500Y103043D02*
X126457D01*
X150000Y79000D02*
X191059Y37941D01*
X116051Y20000D02*
X136903D01*
X114500Y69457D02*
X115000Y68957D01*
X56457Y102543D02*
X56500Y102500D01*
X57957Y91543D02*
X58000Y91500D01*
X85500Y61051D02*
X87000D01*
X28721Y97598D02*
X36051D01*
X28721Y94449D02*
X35949D01*
X44626Y102051D02*
X45118Y102543D01*
X36949Y75551D02*
X37000Y75500D01*
X89957Y20000D02*
X90000Y19957D01*
X76957D02*
X77000Y20000D01*
X135941Y85967D02*
X136216Y86243D01*
X155494Y97646D02*
X155500D01*
X39606Y82047D02*
X42154Y79500D01*
X190551Y18500D02*
X194500D01*
X179000Y20000D02*
X180500Y18500D01*
X179000Y20000D02*
Y33000D01*
X178000Y34000D02*
X179000Y33000D01*
X166651Y34000D02*
X178000D01*
X159563Y26912D02*
X166651Y34000D01*
X146551Y40449D02*
X151689Y35311D01*
X120500Y46551D02*
X122051D01*
X109500Y26551D02*
X116051Y20000D01*
X82000Y87000D02*
X87500D01*
X82000Y79000D02*
X87500D01*
X51000Y27043D02*
X51689Y27732D01*
X28980Y90181D02*
X38858D01*
X28721Y89921D02*
X28980Y90181D01*
X28721Y78110D02*
X42567D01*
X152575Y8000D02*
X167437Y22862D01*
D29*
X29283Y81484D02*
X36000D01*
X28721Y82047D02*
X29283Y81484D01*
X42742Y85984D02*
X43932Y84794D01*
X46855D02*
X47998Y85937D01*
X47208Y84016D02*
X50465D01*
X47186Y83994D02*
X47208Y84016D01*
X43601Y83994D02*
X47186D01*
X43579Y84016D02*
X43601Y83994D01*
X43932Y84794D02*
X46855D01*
X47998Y85937D02*
X52681D01*
X39606Y85984D02*
X42742D01*
X50512Y83969D02*
X52681D01*
X50465Y84016D02*
X50512Y83969D01*
X39606Y84016D02*
X43579D01*
D30*
X69319Y80032D02*
X71905D01*
X72197Y41949D02*
X79500D01*
X93313Y73247D02*
X103841D01*
X10000Y19500D02*
X23000D01*
X26205Y30000D02*
Y36500D01*
X83500Y27087D02*
X89957D01*
X77000D02*
X83500D01*
X87000Y48051D02*
X94500D01*
X79500D02*
X87000D01*
X72197D02*
X79500D01*
X37000Y72402D02*
X39453Y69949D01*
X90000Y11000D02*
Y19957D01*
X77000Y20000D02*
X83500D01*
X89957D01*
X96500Y19957D02*
X103000D01*
Y11000D02*
Y19957D01*
X72197Y61051D02*
X85500D01*
X33291Y30000D02*
X43720D01*
X34000Y43709D02*
Y50000D01*
X43720Y27236D02*
Y30000D01*
X57500Y19957D02*
X64000D01*
X33291Y36500D02*
Y43000D01*
X10000Y59500D02*
X24087D01*
X34000Y57087D02*
X45043D01*
X57500Y63043D02*
X64000D01*
X26500Y57087D02*
X34000D01*
X51000Y63043D02*
X57500D01*
X57595Y48992D02*
Y51095D01*
X62457Y55957D02*
X64000D01*
X70051Y41949D02*
X72197D01*
X61532Y33968D02*
Y36000D01*
X90493Y69507D02*
X93313D01*
X90487Y76987D02*
X93313D01*
X53658Y32842D02*
Y36000D01*
X96500Y27043D02*
X103000D01*
X96500D02*
Y31500D01*
X100551Y34449D02*
Y41791D01*
X103000Y27043D02*
Y32000D01*
X112055Y83445D02*
Y87295D01*
X107464Y69507D02*
X114500Y76543D01*
Y81000D01*
X26205Y22705D02*
Y30000D01*
Y36500D02*
Y43000D01*
X51689Y27732D02*
Y36000D01*
Y48992D02*
Y51811D01*
X77000Y27087D02*
Y29500D01*
X85543Y31500D02*
X89957Y27087D01*
X80500Y55000D02*
X86949D01*
X53658Y48992D02*
Y53299D01*
X103000Y87295D02*
Y93500D01*
X112543Y103043D02*
X120500D01*
X136216Y86243D02*
Y102500D01*
X132000D02*
X136216D01*
X67295Y53000D02*
X72197Y48098D01*
X59563Y48992D02*
Y50827D01*
X72197Y48098D02*
Y54949D01*
X39453Y69949D02*
X44626D01*
X48638Y39543D02*
X51591Y42496D01*
X55000Y72500D02*
X57957D01*
X70500Y11000D02*
Y19957D01*
X124000Y26912D02*
X135941D01*
X87000Y41949D02*
X94500D01*
X90740Y90500D02*
X93945Y87295D01*
X120500Y91500D02*
Y95957D01*
X142500Y102500D02*
X148343D01*
X70500Y27043D02*
Y29500D01*
X101013Y76987D02*
X103841D01*
X57500Y27043D02*
Y32889D01*
X55626Y34763D02*
Y36000D01*
X33291Y30000D02*
Y36500D01*
X26500Y50000D02*
X34000D01*
X43720Y27236D02*
X51000Y19957D01*
X57500D01*
X43720Y30000D02*
X49720Y36000D01*
X55626Y48992D02*
Y54083D01*
X57500Y55957D01*
X24087Y59500D02*
X26500Y57087D01*
X49720Y48992D02*
Y49779D01*
X47500Y59543D02*
X51000Y63043D01*
X57595Y35030D02*
Y36000D01*
X64000Y27043D02*
Y28625D01*
X61532Y48992D02*
Y50532D01*
X94449Y55000D02*
Y61000D01*
X90000Y55000D02*
X94449D01*
X108000Y57500D02*
Y65348D01*
X131000Y103500D02*
Y106000D01*
Y103500D02*
X132000Y102500D01*
X87500Y90500D02*
X90740D01*
X95500Y37500D02*
Y39949D01*
X100551Y61000D02*
X103000D01*
X105500Y58500D01*
X103841Y69507D02*
X108000Y65348D01*
X86500Y69500D02*
Y72000D01*
X87500Y73000D01*
X90000D02*
Y76500D01*
Y70000D02*
Y73000D01*
X87500D02*
X90000D01*
X71500Y74500D02*
X72530Y75530D01*
Y79406D01*
X71905Y80032D02*
X72530Y79406D01*
X100551Y41791D02*
X101791D01*
X103841Y69507D02*
X107464D01*
X116500Y66000D02*
X120000D01*
X115000Y67500D02*
X116500Y66000D01*
X115000Y67500D02*
Y68957D01*
X63500Y35000D02*
X66500Y32000D01*
X68000D01*
X61532Y33968D02*
X63500Y32000D01*
X57595Y35030D02*
X64000Y28625D01*
X52500Y70000D02*
X55000Y72500D01*
X86949Y55000D02*
X87000Y54949D01*
X69500Y72500D02*
X71500Y74500D01*
X65043Y72500D02*
X69500D01*
X68000Y32000D02*
X70500Y29500D01*
X89957Y27087D02*
X90000Y27043D01*
X83500Y31500D02*
X85543D01*
X74500Y32000D02*
X77000Y29500D01*
X71000Y32000D02*
X74500D01*
X28721Y75551D02*
X36949D01*
X28721Y72402D02*
X37000D01*
X44500Y42500D02*
X47457Y39543D01*
X44500Y42500D02*
X47449Y45449D01*
X33291Y43000D02*
X34000Y43709D01*
X99013Y78987D02*
Y91500D01*
Y78987D02*
X101013Y76987D01*
X103000Y93500D02*
X112543Y103043D01*
X95500Y95000D02*
X99000Y91500D01*
X87500Y95000D02*
X95500D01*
X112055Y83445D02*
X114500Y81000D01*
X90000Y70000D02*
X90493Y69507D01*
X90000Y76500D02*
X90487Y76987D01*
X100551Y34449D02*
X103000Y32000D01*
X64011Y51419D02*
X64430Y51000D01*
X62419Y51419D02*
X64011D01*
X61532Y50532D02*
X62419Y51419D01*
X61736Y53000D02*
X67295D01*
X72197Y48051D02*
Y48098D01*
X64430Y51000D02*
X66500D01*
X59563Y50827D02*
X61736Y53000D01*
X53658Y32842D02*
X54500Y32000D01*
X55626Y34763D02*
X57500Y32889D01*
X51000Y52500D02*
X51689Y51811D01*
X72197Y48051D02*
X72197Y48051D01*
X68000Y44000D02*
X70051Y41949D01*
X68000Y44000D02*
Y47000D01*
X66000Y49000D02*
X68000Y47000D01*
X63508Y49000D02*
X66000D01*
X63500Y48992D02*
X63508Y49000D01*
X57595Y51095D02*
X62457Y55957D01*
X51000D02*
X53658Y53299D01*
X23000Y19500D02*
X26205Y22705D01*
X45043Y57087D02*
X47500Y59543D01*
Y52000D02*
Y59543D01*
Y52000D02*
X49720Y49779D01*
D31*
X172575Y8000D02*
D03*
D32*
X162575D02*
D03*
X152575D02*
D03*
X142575D02*
D03*
X132575D02*
D03*
X122575D02*
D03*
D33*
X51591Y42496D02*
D03*
X61630D02*
D03*
X54543Y45547D02*
D03*
Y39445D02*
D03*
Y42496D02*
D03*
X58677Y45547D02*
D03*
Y39445D02*
D03*
Y42496D02*
D03*
D34*
X10000Y59500D02*
D03*
Y19500D02*
D03*
D35*
X7874Y110236D02*
D03*
Y7874D02*
D03*
X188976D02*
D03*
Y110236D02*
D03*
D36*
X24488Y96378D02*
D03*
Y73622D02*
D03*
D37*
X26457Y67992D02*
D03*
Y102008D02*
D03*
D38*
X10000Y67992D02*
D03*
Y102008D02*
D03*
D39*
X36000Y81484D02*
D03*
X33500Y86000D02*
D03*
X36000Y88500D02*
D03*
X33500Y83500D02*
D03*
X49000Y79500D02*
D03*
X51500Y91500D02*
D03*
X48500Y89000D02*
D03*
X108000Y57000D02*
D03*
X131000Y106000D02*
D03*
X126457Y103043D02*
D03*
X87500Y90500D02*
D03*
X95500Y37500D02*
D03*
X105500Y58500D02*
D03*
X150000Y79000D02*
D03*
X183185Y34685D02*
D03*
X86500Y69500D02*
D03*
X103000Y11000D02*
D03*
X90000D02*
D03*
X120500Y91500D02*
D03*
X120000Y66000D02*
D03*
X56500Y102500D02*
D03*
X63500Y32000D02*
D03*
X52500Y70000D02*
D03*
X58000Y91500D02*
D03*
X70500Y11000D02*
D03*
X90000Y55000D02*
D03*
X80500D02*
D03*
X71500Y74500D02*
D03*
X36051Y97598D02*
D03*
X36000Y94449D02*
D03*
X68000Y32000D02*
D03*
X83500Y31500D02*
D03*
X37000Y72402D02*
D03*
Y75500D02*
D03*
X142500Y102500D02*
D03*
X162051Y104000D02*
D03*
X184449D02*
D03*
X168717Y93000D02*
D03*
X120500Y52502D02*
D03*
X44500Y42500D02*
D03*
X124000Y26912D02*
D03*
X109500Y11000D02*
D03*
X194500Y18500D02*
D03*
X175311Y19000D02*
D03*
X87500Y95000D02*
D03*
Y87000D02*
D03*
Y79000D02*
D03*
X96500Y31500D02*
D03*
X66500Y51000D02*
D03*
X54500Y32000D02*
D03*
X71000D02*
D03*
X51000Y52500D02*
D03*
M02*
